<svg width="302" height="113" viewBox="0 0 302 113" fill="none" xmlns="http://www.w3.org/2000/svg">
<path d="M55.6005 0C55.6639 4.43731 55.7681 8.87344 55.6939 13.3119C55.6088 18.3934 55.4711 23.4736 55.0951 28.5433C54.6675 34.4097 54.0508 40.249 52.7118 45.9945C52.2443 47.9882 51.6381 49.9483 50.8975 51.8609C50.216 53.6314 48.9238 54.9689 47.652 56.3111C43.9813 60.1829 39.7406 63.4047 35.3741 66.4681C26.646 72.5938 17.4245 77.945 8.05083 83.0523C7.0137 83.6178 7.01011 83.6178 6.45323 82.5642C3.57898 77.1143 1.54305 71.3712 0.672395 65.3019C-1.91922 47.2511 2.96701 31.3721 15.5706 17.9229C23.4544 9.51757 33.2232 4.11231 44.555 1.44899C47.6168 0.725912 50.7387 0.273177 53.8831 0.096209C54.0579 0.0868229 54.2424 0.116154 54.4029 0H55.6005Z" fill="white"/>
<path d="M60.8682 0C61.9353 0.110287 63.0012 0.219398 64.067 0.333205C69.8299 0.950345 75.3808 2.3747 80.6658 4.70129C94.7065 10.8844 104.775 20.9073 110.871 34.7699C112.834 39.2788 114.149 44.0329 114.777 48.896C116.38 60.9181 114.296 72.2914 108.526 83.0159C108.362 83.3221 108.262 83.5122 107.838 83.2846C98.0239 78.026 88.3963 72.4706 79.3137 66.0516C74.9904 63.0011 70.8766 59.7042 67.1796 55.9075C64.8155 53.48 63.7317 50.5316 62.9125 47.4107C61.8191 43.2444 61.194 38.9995 60.7305 34.7276C60.0778 28.7181 59.8083 22.6899 59.6527 16.6522C59.5054 11.1003 59.5892 5.55074 59.6766 0H60.8682Z" fill="white"/>
<path d="M57.6091 113C43.4223 112.829 30.8906 108.307 20.0882 99.2634C16.0115 95.8325 12.4459 91.8587 9.49537 87.458C9.28939 87.1529 9.20555 86.9887 9.61513 86.754C19.1373 81.1329 28.8163 75.7992 38.9636 71.3208C43.3025 69.406 47.7157 67.6837 52.3288 66.4893C53.8473 66.0842 55.3945 65.7908 56.9576 65.6117C58.4486 65.4545 59.8941 65.8041 61.3324 66.1127C66.2163 67.1604 70.8438 68.945 75.3995 70.916C84.9587 75.0518 94.0821 80.0042 103.064 85.2299C103.902 85.718 104.723 86.2413 105.579 86.6954C106.037 86.937 106.028 87.1248 105.759 87.5166C100.3 95.5958 93.2354 101.948 84.4989 106.5C78.7012 109.524 72.4062 111.525 65.9013 112.413C63.1542 112.795 60.3836 112.991 57.6091 113Z" fill="white"/>
<path d="M216.205 87.279C216.205 79.009 216.208 70.7394 216.215 62.4702C216.203 62.1772 216.215 61.8837 216.252 61.5926C216.429 60.5308 217.221 59.6872 218.233 59.4807C219.384 59.2461 220.338 59.5887 221 60.5367C221.942 61.893 222.842 63.2763 223.755 64.649L230.987 75.483C231.095 75.6449 231.209 75.8056 231.346 76.0027C231.532 75.7798 231.453 75.5416 231.453 75.3305C231.459 70.2478 231.466 65.1641 231.445 60.0779C231.445 59.5312 231.552 59.3329 232.155 59.3552C233.49 59.4033 234.829 59.381 236.166 59.3634C236.537 59.3634 236.683 59.435 236.682 59.8409C236.67 68.0914 236.665 76.3434 236.669 84.5969C236.669 85.8641 235.991 86.744 234.773 87.1453C234.682 87.1746 234.572 87.1617 234.526 87.2732H233.568C232.659 87.2251 232.108 86.6865 231.635 85.9826C228.355 81.1511 225.144 76.2737 221.867 71.4399C221.748 71.2674 221.592 71.1032 221.647 70.7547C221.654 75.9969 221.647 81.1276 221.647 86.2595C221.647 86.6114 221.767 87.0209 221.356 87.2685L216.205 87.279Z" fill="white"/>
<path d="M257.518 87.2792C257.509 87.1231 257.496 86.9671 257.496 86.8099C257.496 78.6017 257.496 70.3935 257.496 62.1853C257.496 60.6354 258.388 59.5736 259.837 59.4293C260.931 59.3213 261.766 59.7812 262.362 60.6764C263.426 62.2791 264.494 63.8803 265.566 65.4798C267.824 68.8604 270.083 72.2406 272.343 75.6204C272.436 75.7612 272.534 75.8984 272.724 76.1706V75.4045C272.724 70.2644 272.731 65.1255 272.713 59.9854C272.713 59.509 272.819 59.353 273.328 59.3671C274.684 59.4046 276.042 59.3894 277.4 59.3729C277.767 59.3729 277.926 59.4398 277.925 59.8516C277.911 68.1185 277.907 76.3854 277.912 84.6522C277.912 86.1047 277.034 86.8697 275.72 87.278H274.762C273.891 87.1865 273.325 86.6515 272.88 85.9874C270.881 82.9963 268.877 80.008 266.871 77.0224C265.53 75.0201 264.185 73.0122 262.837 70.9989C262.854 72.9629 262.837 74.8977 262.845 76.8312C262.845 80.0155 262.845 83.2001 262.845 86.3851C262.845 86.6914 262.909 87.0163 262.67 87.2815L257.518 87.2792Z" fill="white"/>
<path d="M286.616 87.2794C285.832 87.0447 285.241 86.5379 284.689 85.9641C284.09 85.3388 283.459 84.7369 282.83 84.1362C282.56 83.8883 282.346 83.588 282.202 83.2544C282.058 82.9208 281.986 82.5614 281.992 82.1991C281.992 76.2952 281.992 70.3898 281.992 64.4828C281.985 64.11 282.058 63.74 282.206 63.3965C282.353 63.0529 282.573 62.7436 282.85 62.4882C283.636 61.7373 284.407 60.9747 285.178 60.2085C285.449 59.9338 285.775 59.7173 286.136 59.5731C286.496 59.4288 286.884 59.3599 287.273 59.3708C291.505 59.3708 295.736 59.3685 299.968 59.3638C300.372 59.3638 300.522 59.4483 300.514 59.8765C300.486 61.243 300.486 62.6118 300.514 63.9829C300.522 64.4042 300.384 64.5015 299.974 64.5003C296.242 64.4851 292.51 64.491 288.778 64.4921C288.575 64.4887 288.372 64.525 288.182 64.5989C287.993 64.6729 287.82 64.7829 287.675 64.9228C287.529 65.0626 287.413 65.2294 287.333 65.4135C287.254 65.5976 287.213 65.7953 287.212 65.9951C287.212 70.8814 287.212 75.77 287.212 80.661C287.219 81.0537 287.379 81.429 287.66 81.7095C287.94 81.9899 288.32 82.1543 288.721 82.1686C290.697 82.1686 292.673 82.1686 294.648 82.1686C295.366 82.1686 296.085 81.4647 296.085 80.7806C296.085 79.3141 296.068 77.8475 296.097 76.3821C296.104 75.9526 295.956 75.8682 295.553 75.8752C294.256 75.8998 292.959 75.8752 291.662 75.8905C291.303 75.8905 291.128 75.8435 291.137 75.4212C291.163 74.0132 291.155 72.6053 291.137 71.1974C291.137 70.8736 291.22 70.7562 291.571 70.7574C294.663 70.7691 297.757 70.7691 300.85 70.7574C301.238 70.7574 301.309 70.9076 301.308 71.2431C301.298 74.899 301.308 78.5549 301.298 82.2097C301.306 82.5829 301.234 82.9536 301.085 83.2974C300.936 83.6412 300.715 83.9502 300.436 84.2042C299.801 84.7979 299.168 85.3951 298.559 86.0134C298.014 86.5672 297.429 87.0447 296.666 87.2782L286.616 87.2794Z" fill="white"/>
<path d="M171.179 87.2792C171.171 87.0645 171.154 86.8498 171.154 86.6351C171.154 77.78 171.149 68.9246 171.139 60.0687C171.139 59.502 171.284 59.3647 171.857 59.3647C177.026 59.3882 182.195 59.3882 187.363 59.3647C187.82 59.3647 187.978 59.4621 187.961 59.9385C187.927 61.2865 187.933 62.637 187.961 63.9851C187.97 64.404 187.832 64.5025 187.421 64.5002C183.929 64.4849 180.437 64.5002 176.945 64.4802C176.455 64.4802 176.305 64.587 176.316 65.0856C176.35 66.7657 176.35 68.4474 176.316 70.1307C176.306 70.634 176.419 70.7865 176.963 70.7818C180.414 70.7549 183.867 70.7818 187.318 70.7537C187.87 70.7537 187.976 70.9144 187.963 71.4107C187.928 72.7201 187.931 74.0306 187.963 75.34C187.973 75.7764 187.856 75.8961 187.402 75.8938C183.951 75.8738 180.498 75.902 177.046 75.8656C176.414 75.8586 176.303 76.0463 176.316 76.6106C176.354 78.2908 176.345 79.9732 176.316 81.6557C176.316 82.0746 176.448 82.172 176.856 82.1708C180.348 82.1567 183.84 82.1708 187.331 82.1508C187.83 82.1508 187.972 82.2681 187.96 82.7621C187.924 84.2674 187.941 85.7727 187.937 87.278L171.179 87.2792Z" fill="white"/>
<path d="M131.902 87.2792C131.116 87.0445 130.526 86.5388 129.974 85.9651C129.375 85.3386 128.744 84.7367 128.114 84.1372C127.844 83.8895 127.63 83.5894 127.486 83.2561C127.342 82.9227 127.27 82.5634 127.276 82.2013C127.276 76.277 127.276 70.3528 127.276 64.4286C127.273 64.0759 127.344 63.7265 127.484 63.4019C127.625 63.0774 127.833 62.7847 128.094 62.542C128.903 61.7598 129.708 60.9717 130.507 60.1778C130.756 59.9232 131.057 59.7215 131.389 59.5851C131.721 59.4487 132.078 59.3805 132.439 59.3847C135.432 59.3776 138.426 59.3776 141.421 59.3847C141.781 59.3799 142.138 59.447 142.471 59.5817C142.804 59.7164 143.105 59.9161 143.357 60.1684C144.137 60.9252 144.914 61.6831 145.709 62.4258C145.99 62.6768 146.214 62.9828 146.366 63.324C146.519 63.6651 146.596 64.0339 146.594 64.4063C146.603 65.9116 146.594 67.4181 146.604 68.9234C146.604 69.2308 146.544 69.3857 146.179 69.381C144.722 69.3645 143.266 69.3645 141.809 69.381C141.46 69.381 141.369 69.2636 141.375 68.9386C141.392 67.9026 141.385 66.8655 141.375 65.8295C141.375 65.2135 140.637 64.5013 140.006 64.5001C137.97 64.5001 135.934 64.5001 133.898 64.5001C133.24 64.5001 132.489 65.2264 132.489 65.8658C132.489 70.8514 132.489 75.8367 132.489 80.8215C132.489 81.4082 133.26 82.1673 133.865 82.1684C135.922 82.1731 137.977 82.1731 140.033 82.1684C140.616 82.1684 141.37 81.4293 141.374 80.859C141.38 79.8219 141.389 78.7859 141.368 77.7499C141.361 77.3979 141.443 77.2712 141.827 77.2806C143.264 77.3009 144.701 77.3009 146.138 77.2806C146.52 77.2747 146.605 77.4132 146.601 77.7569C146.585 79.2423 146.601 80.7288 146.591 82.2153C146.597 82.5977 146.519 82.9769 146.364 83.3279C146.209 83.6788 145.98 83.9935 145.691 84.251C145.067 84.8271 144.451 85.4137 143.855 86.0179C143.31 86.5705 142.726 87.0516 141.964 87.285L131.902 87.2792Z" fill="white"/>
<path d="M240.751 87.2792C240.751 85.7152 240.751 84.1524 240.734 82.5861C240.734 82.2505 240.841 82.1485 241.177 82.1555C242.074 82.1743 242.974 82.1403 243.87 82.1708C244.315 82.1849 244.478 82.0886 244.477 81.6041C244.458 76.0733 244.458 70.5425 244.477 65.0117C244.477 64.6128 244.392 64.4673 243.957 64.4837C243.041 64.5178 242.122 64.4837 241.203 64.5025C240.829 64.5119 240.731 64.3852 240.736 64.0332C240.754 62.6253 240.756 61.2173 240.736 59.8094C240.73 59.4246 240.879 59.3647 241.225 59.3647C245.138 59.3757 249.05 59.3757 252.962 59.3647C253.321 59.3647 253.441 59.4574 253.441 59.8247C253.42 61.2326 253.42 62.6405 253.441 64.0484C253.441 64.4274 253.298 64.5037 252.95 64.4966C252.013 64.4779 251.074 64.5072 250.138 64.4826C249.762 64.4732 249.667 64.5999 249.668 64.9519C249.678 70.5226 249.678 76.0928 249.668 81.6628C249.668 82.0359 249.774 82.1778 250.176 82.1661C251.073 82.1391 251.973 82.179 252.868 82.1485C253.308 82.1344 253.451 82.2517 253.445 82.7023C253.421 84.2275 253.445 85.7528 253.454 87.278L240.751 87.2792Z" fill="white"/>
<path d="M150.701 87.279C150.688 87.0444 150.663 86.8097 150.663 86.5751C150.663 77.7442 150.658 68.9131 150.648 60.0815C150.648 59.5382 150.749 59.3353 151.355 59.3599C152.65 59.4103 153.948 59.3998 155.244 59.3599C155.749 59.3458 155.863 59.496 155.862 59.9747C155.846 67.1258 155.862 74.2769 155.838 81.4279C155.838 81.9923 155.937 82.18 156.568 82.1741C159.998 82.1378 163.428 82.1671 166.858 82.1448C167.36 82.1448 167.493 82.2739 167.482 82.7584C167.448 84.2625 167.468 85.7679 167.466 87.272L150.701 87.279Z" fill="white"/>
<path d="M211.859 82.3513C210.978 76.1693 210.053 69.9933 209.158 63.8136C209.078 63.1293 208.735 62.5003 208.2 62.0537C207.429 61.4014 206.661 60.7499 205.895 60.0991C205.371 59.6373 204.69 59.3826 203.986 59.3845C202.729 59.3845 201.471 59.3845 200.217 59.3845C199.552 59.3753 198.908 59.6082 198.408 60.0381C197.613 60.7186 196.804 61.3838 195.996 62.0514C195.511 62.4352 195.193 62.9862 195.108 63.5919C194.759 65.9654 194.4 68.3389 194.051 70.7125C193.509 74.3997 192.97 78.0869 192.433 81.7741C192.168 83.6079 191.915 85.444 191.656 87.279H196.806C197.194 87.0444 197.146 86.6384 197.204 86.2865C197.443 84.7847 197.663 83.2782 197.886 81.7741C197.992 81.0701 198.045 81.022 198.75 81.0197C200.999 81.0126 203.248 81.0126 205.497 81.0197C206.164 81.0197 206.223 81.0842 206.328 81.7459C206.584 83.3439 206.782 84.9513 207.017 86.5563C207.056 86.8309 207.097 87.0995 207.344 87.2826H212.493C212.42 85.6189 212.092 83.9904 211.859 82.3513ZM204.781 75.6742H202.087C201.069 75.6742 200.051 75.6566 199.035 75.6825C198.638 75.693 198.572 75.5651 198.625 75.2132C199.104 72.0461 199.572 68.8783 200.03 65.7097C200.103 65.2169 200.868 64.5211 201.376 64.5035C201.715 64.493 202.055 64.5035 202.394 64.5035C203.514 64.5035 204.079 65.0245 204.231 66.1109C204.641 69.0308 205.064 71.9487 205.501 74.8647C205.622 75.6766 205.639 75.6731 204.781 75.6742Z" fill="white"/>
<path d="M161.097 53.7284C159.66 53.7284 158.223 53.7143 156.786 53.7284C156.387 53.743 155.989 53.6744 155.619 53.5271C155.249 53.3799 154.916 53.1573 154.64 52.8742C153.87 52.1093 153.091 51.349 152.313 50.5922C152.039 50.3356 151.822 50.0256 151.678 49.682C151.534 49.3385 151.464 48.9691 151.475 48.5977C151.488 47.151 151.491 45.7044 151.475 44.2566C151.475 43.8682 151.542 43.7098 151.987 43.7192C153.382 43.7486 154.78 43.7462 156.179 43.7192C156.604 43.7122 156.723 43.8459 156.712 44.2495C156.685 45.2457 156.699 46.2441 156.705 47.2402C156.705 47.862 157.482 48.6247 158.117 48.6258C160.152 48.6305 162.188 48.6305 164.224 48.6258C164.833 48.6258 165.598 47.8738 165.603 47.2777C165.61 46.5351 165.603 45.7924 165.603 45.0485C165.603 43.8659 165.166 43.3168 163.992 43.054C161.221 42.4204 158.45 41.7896 155.678 41.1615C154.948 41.014 154.296 40.6147 153.841 40.0363C153.258 39.2925 152.665 38.5568 152.071 37.8212C151.669 37.3292 151.457 36.7138 151.472 36.0836C151.485 34.3831 151.485 32.6827 151.472 30.9822C151.46 30.6203 151.523 30.2597 151.659 29.923C151.795 29.5862 152.001 29.2806 152.263 29.0252C153.076 28.218 153.897 27.419 154.715 26.6188C154.968 26.3667 155.27 26.1673 155.603 26.0328C155.936 25.8983 156.294 25.8314 156.654 25.8362C159.648 25.83 162.642 25.83 165.636 25.8362C165.996 25.8336 166.353 25.9023 166.685 26.0382C167.017 26.1741 167.318 26.3744 167.569 26.627C168.376 27.4092 169.186 28.1914 169.999 28.9736C170.253 29.2095 170.453 29.4947 170.588 29.8109C170.722 30.127 170.788 30.4672 170.781 30.8097C170.781 32.335 170.766 33.8602 170.793 35.3855C170.8 35.8008 170.635 35.8689 170.27 35.8642C168.873 35.8501 167.476 35.8442 166.078 35.8642C165.665 35.8712 165.581 35.7199 165.59 35.3538C165.61 34.3378 165.6 33.3217 165.59 32.3033C165.59 31.6932 164.839 30.9576 164.222 30.9564C162.167 30.9564 160.112 30.9564 158.057 30.9564C157.448 30.9564 156.699 31.7061 156.694 32.3115C156.694 33.0343 156.694 33.7582 156.694 34.4809C156.694 35.7152 157.115 36.2197 158.335 36.4977C161.089 37.1219 163.836 37.7602 166.587 38.3891C167.334 38.5479 167.998 38.9643 168.458 39.5623C169.028 40.2909 169.612 41.009 170.191 41.7305C170.574 42.1873 170.782 42.7609 170.779 43.352C170.771 45.151 170.771 46.95 170.779 48.749C170.787 49.0915 170.722 49.4319 170.589 49.7484C170.455 50.065 170.256 50.3508 170.003 50.5875C169.179 51.3842 168.357 52.1832 167.529 52.974C167.273 53.2224 166.969 53.4175 166.635 53.5474C166.3 53.6773 165.942 53.7393 165.582 53.7296C164.091 53.7213 162.594 53.7272 161.097 53.7284Z" fill="white"/>
<path d="M218.709 39.7744C218.709 35.3383 218.719 30.901 218.697 26.4649C218.697 25.9428 218.841 25.816 219.366 25.8184C224.555 25.8387 229.742 25.8387 234.927 25.8184C235.416 25.8184 235.573 25.9275 235.56 26.4238C235.524 27.7324 235.524 29.0414 235.56 30.3507C235.573 30.8318 235.448 30.9714 234.943 30.9679C231.491 30.9456 228.04 30.9679 224.588 30.9421C224.017 30.9421 223.909 31.1122 223.919 31.6237C223.951 33.2663 223.951 34.9089 223.919 36.5515C223.909 37.0642 224.021 37.2402 224.591 37.2355C228.022 37.2073 231.454 37.2355 234.89 37.2073C235.46 37.2073 235.58 37.3751 235.564 37.8925C235.528 39.162 235.519 40.4338 235.564 41.7021C235.587 42.2688 235.383 42.3592 234.866 42.3556C231.415 42.3345 227.963 42.3556 224.512 42.3345C224.043 42.3345 223.913 42.4518 223.92 42.9118C223.95 44.6326 223.95 46.3534 223.92 48.0742C223.914 48.5106 224.03 48.6315 224.483 48.6291C227.956 48.6092 231.429 48.6291 234.902 48.6068C235.413 48.6068 235.586 48.7042 235.568 49.2416C235.522 50.5885 235.539 51.9401 235.568 53.287C235.568 53.6577 235.455 53.7387 235.089 53.7387C229.803 53.727 224.516 53.727 219.228 53.7387C218.712 53.7387 218.71 53.5134 218.71 53.1427C218.714 48.6874 218.714 44.2313 218.709 39.7744Z" fill="white"/>
<path d="M263.771 49.6322C263.771 48.4202 263.771 47.2083 263.771 45.9951C263.771 45.7088 263.723 45.5387 263.39 45.4507C262.716 45.2724 262.244 44.762 261.714 44.356C261.226 43.9853 260.756 43.5828 260.262 43.2262C259.645 42.785 259.311 42.182 259.152 41.4768C258.013 36.4318 256.889 31.3867 255.735 26.3487C255.634 25.9005 255.723 25.8148 256.159 25.8207C257.596 25.841 259.034 25.841 260.471 25.8207C260.83 25.8207 260.986 25.9087 261.069 26.2806C262.011 30.5279 262.976 34.7704 263.932 39.0141C264.148 39.9809 264.787 40.4854 265.807 40.4854H266.825C267.957 40.4854 268.514 40.0536 268.762 38.9602C269.71 34.7739 270.653 30.5869 271.589 26.3991C271.687 25.9556 271.857 25.8125 272.333 25.8125C273.708 25.8489 275.087 25.8418 276.461 25.8125C276.913 25.8043 277.06 25.897 276.957 26.3675C275.794 31.4641 274.639 36.5632 273.492 41.6645C273.392 42.1104 273.216 42.5445 272.869 42.846C271.872 43.7154 270.899 44.6493 269.711 45.2395C269.078 45.5539 268.936 45.8649 268.947 46.4949C268.987 48.7241 268.947 50.9533 268.974 53.1825C268.974 53.6155 268.872 53.7445 268.417 53.734C267.041 53.7023 265.662 53.7058 264.287 53.734C263.856 53.7422 263.757 53.6037 263.765 53.2048C263.788 52.0163 263.772 50.8301 263.771 49.6322Z" fill="white"/>
<path d="M198.217 39.7654C198.217 35.3281 198.224 30.8896 198.207 26.4523C198.207 25.983 198.31 25.8046 198.827 25.8187C200.164 25.8539 201.501 25.8539 202.838 25.8187C203.346 25.8046 203.46 25.9619 203.459 26.4394C203.443 33.5963 203.459 40.7533 203.431 47.9103C203.431 48.5274 203.612 48.6377 204.193 48.633C207.625 48.606 211.057 48.633 214.492 48.6083C214.971 48.6083 215.091 48.7421 215.081 49.195C215.051 50.563 215.061 51.9322 215.081 53.3014C215.081 53.6217 215.011 53.739 214.656 53.739C209.328 53.7273 203.999 53.7273 198.671 53.739C198.138 53.739 198.225 53.441 198.225 53.1383C198.219 48.6807 198.217 44.223 198.217 39.7654Z" fill="white"/>
<path d="M240.44 39.777C240.44 35.3397 240.448 30.9035 240.428 26.4674C240.428 25.9594 240.54 25.7986 241.08 25.8162C242.376 25.8596 243.674 25.8549 244.97 25.8162C245.488 25.801 245.64 25.923 245.637 26.4533C245.617 32.9415 245.624 39.4308 245.624 45.919C245.624 46.623 245.652 47.3269 245.615 48.0309C245.591 48.4897 245.734 48.6269 246.213 48.6175C249.625 48.5988 253.04 48.6058 256.448 48.6093C257.368 48.6093 257.248 48.5225 257.252 49.3837C257.258 50.6532 257.24 51.9238 257.261 53.1945C257.268 53.5828 257.188 53.7318 256.746 53.7307C251.477 53.715 246.21 53.715 240.946 53.7307C240.506 53.7307 240.433 53.584 240.434 53.1956C240.446 48.7247 240.448 44.2518 240.44 39.777Z" fill="white"/>
<path d="M194.166 39.7724C194.166 37.0376 194.159 34.3015 194.166 31.5666C194.166 30.7887 193.97 30.1024 193.397 29.5427L190.435 26.6412C190.176 26.3822 189.866 26.1773 189.524 26.0388C189.182 25.9002 188.815 25.831 188.445 25.8352C185.833 25.8258 183.22 25.8258 180.607 25.8352C180.247 25.8298 179.889 25.8958 179.556 26.0293C179.223 26.1628 178.921 26.361 178.668 26.6119C177.663 27.5904 176.662 28.5712 175.663 29.5544C175.399 29.8077 175.19 30.1111 175.049 30.4462C174.909 30.7813 174.84 31.141 174.846 31.5032C174.846 37.0333 174.846 42.5629 174.846 48.0921C174.839 48.4446 174.906 48.7948 175.042 49.1211C175.178 49.4474 175.382 49.7429 175.639 49.9893L178.643 52.933C178.9 53.1929 179.209 53.3979 179.551 53.5352C179.893 53.6725 180.26 53.7391 180.629 53.7308C183.222 53.7246 185.817 53.7246 188.414 53.7308C188.793 53.7376 189.169 53.6682 189.519 53.527C189.869 53.3857 190.186 53.1756 190.45 52.9095C191.338 52.039 192.205 51.1497 193.124 50.3072C193.882 49.6162 194.185 48.8066 194.174 47.8035C194.144 45.1272 194.166 42.4498 194.166 39.7724ZM188.991 33.9284C188.928 38.1111 188.96 42.295 188.974 46.4824C188.974 46.9212 188.822 47.218 188.549 47.5653C187.847 48.457 186.992 48.7527 185.861 48.66C184.671 48.5626 183.465 48.6201 182.268 48.647C181.813 48.6576 181.51 48.4898 181.164 48.2141C180.304 47.5324 179.992 46.7358 180.05 45.6329C180.15 43.6829 180.079 41.7236 180.079 39.7666C180.079 37.5186 180.088 35.2706 180.07 33.0226C180.07 32.6014 180.216 32.3187 180.486 31.9948C181.186 31.1442 182.023 30.8497 183.132 30.9389C184.383 31.0351 185.647 30.9788 186.902 30.9518C187.319 30.9424 187.58 31.1149 187.895 31.3507C188.79 32.016 189.007 32.849 188.99 33.9284H188.991Z" fill="white"/>
</svg>
