<svg width="106" height="106" viewBox="0 0 106 106" fill="none" xmlns="http://www.w3.org/2000/svg">
<circle cx="45.5" cy="46.5" r="42.5" fill="#CBFFF8"/>
<g clip-path="url(#clip0_574_1971)">
<path d="M80.118 54.799C80.136 55.5373 79.5598 56.1315 78.7495 56.1675C78.3354 56.1855 77.7772 56.0414 77.5251 56.2575C77.237 56.4916 77.4531 57.0498 77.4351 57.4639C77.381 58.2742 76.8409 58.8504 76.0846 58.8504C75.3283 58.8504 74.7701 58.2742 74.7341 57.4639C74.7161 57.0498 74.9142 56.4736 74.6441 56.2395C74.392 56.0234 73.8338 56.1675 73.4197 56.1495C72.6094 56.1135 72.0332 55.5373 72.0512 54.799C72.0512 54.0427 72.6454 53.5025 73.4557 53.4665C73.8698 53.4485 74.428 53.6466 74.6801 53.3765C74.8782 53.1424 74.7521 52.6022 74.7521 52.2061C74.7881 51.3598 75.3463 50.7656 76.1206 50.7836C76.8589 50.8016 77.4171 51.3778 77.4351 52.2061C77.4891 53.4305 77.4891 53.4305 78.7135 53.4845C79.5238 53.5025 80.1 54.0427 80.118 54.799Z" fill="#078776"/>
<path d="M41.9793 60.1828C41.9973 60.9211 41.4211 61.4973 40.6289 61.5693C40.1967 61.6053 39.6025 61.3533 39.3504 61.6774C39.1344 61.9475 39.3144 62.4876 39.2784 62.9198C39.2424 63.6941 38.6662 64.2523 37.9459 64.2523C37.2077 64.2523 36.6315 63.6761 36.5955 62.8838C36.5775 62.4696 36.7215 61.9114 36.5054 61.6594C36.2714 61.3893 35.7132 61.5873 35.281 61.5693C34.4707 61.5333 33.8945 60.9571 33.8945 60.2189C33.8945 59.4626 34.4707 58.9224 35.281 58.8684C35.6952 58.8504 36.2714 59.0485 36.4874 58.7784C36.7035 58.5083 36.5595 57.9681 36.5775 57.5539C36.6135 56.7617 37.1897 56.1675 37.9459 56.1855C38.6662 56.2035 39.2244 56.7617 39.2784 57.5179C39.3144 57.9501 39.0803 58.5443 39.3864 58.7964C39.6385 59.0124 40.1967 58.8504 40.6289 58.8684C41.4031 58.9044 41.9613 59.4446 41.9793 60.1828Z" fill="#078776"/>
<path d="M94.0009 69.2399C94.0009 68.2856 93.4607 67.7634 92.4883 67.7454C91.3359 67.7454 90.2015 67.7274 89.0491 67.7454C88.689 67.7454 88.599 67.6554 88.599 67.2952C88.617 66.1248 88.617 64.9544 88.599 63.802C88.581 62.9737 88.0948 62.3975 87.3205 62.3615C86.3842 62.3255 85.4299 62.3255 84.4936 62.3615C83.7733 62.3795 83.2331 62.9917 83.2151 63.676C83.2151 64.3962 83.7553 64.9904 84.5116 65.0265C84.8177 65.0445 85.1418 65.0445 85.4479 65.0265C85.79 64.9904 85.916 65.0985 85.898 65.4586C85.862 65.9988 85.862 66.539 85.898 67.0792C85.9341 67.6014 85.79 67.7454 85.2498 67.7454C81.3245 67.7274 77.3991 67.7274 73.4557 67.7274C71.9972 67.7274 71.9972 67.7274 71.9972 66.2869C71.9972 65.0625 71.9972 65.0625 73.2396 65.0265C74.1039 65.0084 74.6981 64.4503 74.6981 63.676C74.6981 62.9017 74.1039 62.3435 73.2396 62.3255C72.4294 62.3075 71.6191 62.3075 70.8088 62.3255C69.8365 62.3435 69.3143 62.8477 69.2963 63.82C69.2783 64.8824 69.2422 65.9268 69.3143 66.9891C69.3503 67.6374 69.1162 67.7274 68.54 67.7274C54.6212 67.7094 40.7023 67.7274 26.7835 67.7094C25.9552 67.7094 25.343 67.9255 24.9648 68.6637C24.9648 76.1183 24.9648 83.5729 24.9648 91.0275C25.1989 91.4236 25.523 91.7297 25.9012 91.9638C29.6825 91.9638 33.4458 91.9638 37.2271 91.9638C37.7313 91.6397 38.1634 91.2796 38.1634 90.6134C38.1634 89.8211 37.5512 89.2809 36.6329 89.2629C33.8419 89.2629 31.069 89.2449 28.278 89.2809C27.7378 89.2809 27.6298 89.1188 27.6298 88.6147C27.6658 86.3279 27.6658 84.0411 27.6298 81.7543C27.6298 81.2681 27.7558 81.1781 28.224 81.1781C37.9834 81.1961 47.7608 81.1961 57.5202 81.1781C57.9883 81.1781 58.1144 81.2681 58.1144 81.7543C58.0784 84.0591 58.0964 86.3819 58.1144 88.6867C58.1144 89.1548 58.0243 89.2809 57.5382 89.2809C54.8192 89.2629 52.1003 89.2629 49.3813 89.2629C48.373 89.2629 47.8688 89.533 47.6527 90.2172C47.4367 90.8654 47.7068 91.4056 48.535 91.9638C63.3542 91.9638 78.1734 91.9638 93.0105 91.9638C93.5687 91.6217 93.9649 91.2076 93.9649 90.4873C93.9829 83.4289 94.0009 76.3344 94.0009 69.2399ZM58.1684 77.991C58.1684 78.4231 58.0604 78.5492 57.6102 78.5492C47.8148 78.5312 38.0194 78.5312 28.242 78.5492C27.8098 78.5492 27.6838 78.4411 27.6838 77.991C27.7018 75.6862 27.7198 73.3634 27.6838 71.0586C27.6838 70.5544 27.8098 70.4283 28.314 70.4463C33.2117 70.4643 38.1094 70.4643 43.0071 70.4643C47.8508 70.4643 52.7125 70.4643 57.5562 70.4463C58.0604 70.4463 58.1864 70.5544 58.1684 71.0586C58.1324 73.3634 58.1324 75.6862 58.1684 77.991ZM91.3179 88.7047C91.3179 89.2089 91.2099 89.3349 90.7057 89.3349C80.9643 89.3169 71.2049 89.3169 61.4635 89.3349C60.9774 89.3349 60.8333 89.2269 60.8333 88.7227C60.8513 82.8347 60.8513 76.9466 60.8333 71.0766C60.8333 70.5724 60.9414 70.4463 61.4455 70.4463C66.3432 70.4643 71.2409 70.4643 76.1386 70.4643C80.9823 70.4643 85.844 70.4643 90.6877 70.4463C91.1739 70.4463 91.3179 70.5544 91.3179 71.0586C91.2999 76.9286 91.2999 82.8166 91.3179 88.7047Z" fill="#078776"/>
<path d="M59.0138 23.018C48.2821 23.018 37.5504 23.018 26.8186 23C25.9903 23 25.3961 23.2161 25 23.9543C25 31.679 25 39.4037 25 47.1284C25.3961 47.8666 26.0084 48.0827 26.8186 48.0827C37.5504 48.0647 48.2821 48.0647 59.0138 48.0647C60.4363 48.0647 60.8325 47.6506 60.8325 46.2101C60.8325 39.0976 60.8325 31.9671 60.8325 24.8546C60.8505 23.4322 60.4363 23.018 59.0138 23.018ZM41.5838 44.7696C41.5838 45.2737 41.4757 45.3998 40.9716 45.3818C36.7581 45.3638 32.5266 45.3638 28.3132 45.3818C27.809 45.3818 27.6829 45.2737 27.7009 44.7696C27.7009 41.6905 27.7009 38.6294 27.7009 35.5504C27.7009 32.4713 27.7189 29.3922 27.6829 26.3132C27.6829 25.809 27.791 25.6829 28.2951 25.7009C32.5086 25.7189 36.7401 25.7189 40.9535 25.7009C41.4577 25.7009 41.5838 25.827 41.5658 26.3132C41.5658 32.4713 41.5658 38.6294 41.5838 44.7696ZM58.1675 44.7696C58.1675 45.2737 58.0595 45.3998 57.5553 45.3818C53.3419 45.3638 49.1104 45.3638 44.8969 45.3818C44.3927 45.3818 44.2667 45.2737 44.2847 44.7696C44.3027 41.6905 44.3027 38.6114 44.3027 35.5324C44.3027 32.4533 44.3207 29.3742 44.2847 26.2951C44.2847 25.791 44.3927 25.6649 44.8969 25.6829C49.1104 25.7009 53.3419 25.7009 57.5553 25.6829C58.0595 25.6829 58.1855 25.809 58.1675 26.2951C58.1495 32.4713 58.1495 38.6294 58.1675 44.7696Z" fill="#078776"/>
<path d="M42.9531 83.9152C43.7993 83.9152 44.6636 83.8972 45.5099 83.9152C46.3562 83.9332 46.9685 84.4914 46.9504 85.2657C46.9504 86.04 46.3562 86.5982 45.4919 86.6162C43.7633 86.6342 42.0347 86.6342 40.3061 86.6162C39.4418 86.6162 38.8476 86.04 38.8656 85.2657C38.8656 84.4914 39.4598 83.9332 40.3241 83.9152C41.2064 83.9152 42.0888 83.9152 42.9531 83.9152Z" fill="#078776"/>
<path d="M94.0001 41.7446C94.0181 40.9343 93.712 40.4121 93.0277 39.98C90.6689 38.5215 88.3281 37.0089 85.9873 35.5324C85.6272 35.2983 85.4831 35.0643 85.4831 34.6321C85.5011 31.319 85.5011 27.9878 85.5011 24.6746C85.5011 23.5222 85.015 23.0361 83.8806 23.0181C80.4954 23.0181 77.1102 23.0181 73.707 23.0181C72.5006 23.0181 72.0324 23.4862 72.0324 24.6746C72.0324 27.9878 72.0144 31.319 72.0504 34.6321C72.0504 35.0823 71.9064 35.3163 71.5463 35.5324C69.1875 37.0089 66.8646 38.5215 64.5058 39.98C63.8576 40.3941 63.5335 40.8803 63.5515 41.6726C63.5875 43.2211 63.5695 44.7696 63.5695 46.3182C63.5695 47.6146 64.0197 48.0648 65.2981 48.0648C69.7817 48.0648 74.2832 48.0648 78.7668 48.0648C83.3044 48.0648 87.8419 48.0648 92.3615 48.0648C93.5139 48.0648 94.0181 47.5786 94.0181 46.4442C94.0001 44.8777 93.9641 43.3111 94.0001 41.7446ZM75.2015 25.701C77.5784 25.719 79.9552 25.719 82.35 25.701C82.7282 25.701 82.8362 25.809 82.8362 26.1872C82.8182 27.5196 82.8362 28.8341 82.8362 30.1666C82.8362 31.499 82.8182 32.8135 82.8362 34.1459C82.8362 34.5241 82.7282 34.6321 82.35 34.6321C79.9732 34.6141 77.5964 34.6141 75.2015 34.6321C74.8234 34.6321 74.7154 34.5241 74.7154 34.1459C74.7334 31.499 74.7334 28.8521 74.7154 26.2052C74.7154 25.791 74.8234 25.701 75.2015 25.701ZM73.635 37.3871C73.8331 37.261 74.0311 37.297 74.2112 37.297C77.2543 37.297 80.3153 37.297 83.3584 37.297C83.5745 37.297 83.7905 37.297 84.0066 37.4411C85.2851 38.2694 86.5635 39.0797 87.968 39.98C81.7738 39.98 75.7597 39.98 69.5836 39.98C71.0061 39.0616 72.3205 38.2334 73.635 37.3871ZM91.2091 45.2378C90.831 45.6699 89.8947 45.3638 89.2104 45.3638C81.7738 45.3638 74.3372 45.3638 66.9187 45.3818C66.3605 45.3818 66.1804 45.2558 66.2344 44.6976C66.2884 44.0494 66.0184 43.1851 66.3425 42.8069C66.7206 42.3928 67.6029 42.6809 68.2691 42.6809C71.7804 42.6629 75.2736 42.6809 78.7848 42.6809C82.7642 42.6809 86.7255 42.6989 90.7049 42.6629C91.2091 42.6629 91.3712 42.7709 91.3171 43.2931C91.2631 43.9593 91.5332 44.8597 91.2091 45.2378Z" fill="#078776"/>
<path d="M59.4815 56.1675C57.0867 55.9874 55.6282 54.5289 55.4481 52.1521C55.3941 51.3418 54.8179 50.7656 54.0796 50.7836C53.3594 50.8016 52.8192 51.3418 52.7472 52.1161C52.5491 54.5829 51.1806 55.9514 48.6777 56.1675C47.9035 56.2395 47.3633 56.7977 47.3633 57.518C47.3633 58.2382 47.9035 58.7964 48.6777 58.8684C51.1626 59.0845 52.5491 60.453 52.7472 62.9198C52.8192 63.6941 53.3594 64.2523 54.0796 64.2523C54.7999 64.2523 55.4301 63.7121 55.4301 62.9378C55.4481 60.579 57.3928 58.8144 59.5535 58.8324C60.2918 58.8324 60.814 58.2202 60.832 57.536C60.85 56.7977 60.2918 56.2215 59.4815 56.1675ZM54.7999 58.0761C54.0976 58.7604 54.0976 58.7604 53.4314 58.1122C52.8192 57.518 52.8192 57.518 53.4494 56.8877C54.0976 56.2395 54.0976 56.2575 54.7639 56.9057C54.9619 57.1038 55.178 57.3019 55.3941 57.5C55.196 57.716 54.9979 57.8961 54.7999 58.0761Z" fill="#078776"/>
<path d="M42.8613 75.8303C42.033 75.8303 41.2047 75.8303 40.3765 75.8303C39.4761 75.8123 38.8639 75.2541 38.8999 74.4439C38.918 73.6696 39.5122 73.1474 40.3945 73.1294C42.1051 73.1294 43.7976 73.1294 45.5082 73.1294C46.3725 73.1294 46.9668 73.6696 46.9848 74.4439C47.0028 75.2361 46.3906 75.8123 45.4902 75.8303C44.6079 75.8483 43.7256 75.8303 42.8613 75.8303Z" fill="#078776"/>
<path d="M38.8826 35.5685C38.8826 36.5588 38.8826 37.5492 38.8826 38.5215C38.8646 39.3858 38.3244 39.98 37.5501 39.998C36.7578 40.016 36.1816 39.4038 36.1816 38.5035C36.1816 36.5228 36.1816 34.5601 36.1816 32.5794C36.1816 31.7151 36.7398 31.1209 37.5141 31.1029C38.3064 31.0849 38.8646 31.6971 38.8826 32.5974C38.8826 33.5878 38.8826 34.5781 38.8826 35.5685Z" fill="#078776"/>
<path d="M49.6677 35.5685C49.6677 36.5588 49.6677 37.5492 49.6677 38.5215C49.6497 39.3858 49.1095 39.98 48.3353 39.998C47.543 40.016 46.9668 39.4038 46.9668 38.5035C46.9668 36.5228 46.9668 34.5601 46.9668 32.5794C46.9668 31.7151 47.525 31.1209 48.2993 31.1029C49.0915 31.0849 49.6497 31.6971 49.6677 32.5974C49.6677 33.5878 49.6677 34.5781 49.6677 35.5685Z" fill="#078776"/>
<path d="M86.9229 73.1475C83.3036 73.1475 79.7024 73.1475 76.0831 73.1475C72.4459 73.1475 68.8086 73.1475 65.1713 73.1475C64.055 73.1475 63.5508 73.6336 63.5508 74.732C63.5508 78.1712 63.5508 81.5924 63.5508 85.0316C63.5508 86.13 64.055 86.6161 65.1713 86.6161C72.4459 86.6161 79.7204 86.6161 86.9949 86.6161C88.1473 86.6161 88.6155 86.13 88.6155 84.9596C88.6155 81.5744 88.6155 78.1892 88.6155 74.786C88.5975 73.6156 88.1293 73.1475 86.9229 73.1475ZM85.9146 83.375C85.9146 83.8252 85.8065 83.9332 85.3564 83.9332C79.1622 83.9152 72.9681 83.9152 66.7559 83.9332C66.3237 83.9332 66.1977 83.8252 66.1977 83.375C66.2157 81.0342 66.2157 78.7114 66.1977 76.3706C66.1977 75.9204 66.3057 75.8124 66.7559 75.8124C69.871 75.8304 73.0041 75.8304 76.1192 75.8304C79.1802 75.8304 82.2233 75.8484 85.2843 75.8124C85.7885 75.8124 85.9146 75.9204 85.8966 76.4246C85.8966 78.7654 85.8965 81.0702 85.9146 83.375Z" fill="#078776"/>
</g>
<circle cx="33" cy="85" r="10.5" fill="white" stroke="#FFE074" stroke-width="5"/>
<defs>
<clipPath id="clip0_574_1971">
<rect width="69" height="69" fill="white" transform="translate(25 23)"/>
</clipPath>
</defs>
</svg>
