<svg width="106" height="106" viewBox="0 0 106 106" fill="none" xmlns="http://www.w3.org/2000/svg">
<circle cx="52.5" cy="46.5" r="42.5" fill="#CBFFF8"/>
<g clip-path="url(#clip0_574_2095)">
<path d="M40.7293 31.7329C39.9424 31.6294 39.1348 31.5259 38.3686 31.3188C37.4574 31.091 36.9604 30.4697 36.8776 29.4757C36.7533 28.1711 36.5463 26.8665 36.3806 25.5619C36.2978 24.9613 36.1114 24.4022 35.3866 24.4229C34.6618 24.4436 34.4961 25.0028 34.434 25.6033C34.2683 26.9079 34.082 28.2125 33.937 29.5172C33.8542 30.2834 33.5021 30.8632 32.7566 31.091C31.8248 31.3809 30.8722 31.6294 29.9196 31.8158C29.3191 31.9193 28.8428 32.1057 28.8428 32.7891C28.8428 33.4517 29.2984 33.6795 29.9196 33.7416C30.7065 33.8245 31.4934 33.9487 32.2803 34.1351C33.2951 34.3629 33.8542 35.0049 33.937 36.0817C34.0406 37.3863 34.2683 38.6909 34.434 39.9956C34.5168 40.5961 34.7239 41.0517 35.428 41.0724C35.9664 41.0724 36.277 40.7203 36.3806 39.9541C36.567 38.6495 36.7533 37.3449 36.8776 36.0403C36.9604 35.1912 37.3539 34.6114 38.1201 34.3629C38.9691 34.0937 39.8389 33.8659 40.7293 33.7002C41.3506 33.576 41.9718 33.4724 41.9718 32.7062C41.9718 31.9193 41.3506 31.8158 40.7293 31.7329ZM35.5108 34.073C35.076 33.5553 34.6204 33.0169 34.1648 32.4577C34.082 32.5406 33.9784 32.6234 33.8749 32.7062C33.9577 32.6027 34.0406 32.4992 34.1234 32.4163C34.1441 32.437 34.1441 32.437 34.1648 32.4577C34.579 32.085 34.9517 31.7329 35.2416 31.4637C35.6972 31.94 36.1735 32.4577 36.6705 32.9754C36.4013 33.2446 35.9043 33.7002 35.5108 34.073Z" fill="#078776"/>
<path d="M84.6312 27.964C83.9478 27.9019 83.2437 27.7983 82.5604 27.6534C81.732 27.4877 81.2764 26.9907 81.2143 26.1002C81.1315 25.0648 80.9244 24.0501 80.7794 23.0354C80.6966 22.4556 80.4481 22.0207 79.8476 22C79.2263 22 78.9778 22.4556 78.895 23.0147C78.75 24.0708 78.5637 25.1062 78.4601 26.1624C78.398 26.8457 78.0667 27.3013 77.4454 27.467C76.6585 27.6948 75.8509 27.8604 75.0433 28.0054C74.4634 28.1089 73.9457 28.2953 73.9664 28.9787C73.9664 29.6621 74.4634 29.8484 75.064 29.9313C75.8095 30.0348 76.5342 30.1384 77.2797 30.2833C78.0045 30.449 78.398 30.9046 78.4808 31.6915C78.5844 32.7683 78.7915 33.8451 78.9364 34.9013C79.0192 35.4604 79.2677 35.8124 79.8683 35.8538C80.4274 35.8124 80.738 35.5225 80.8209 34.9427C80.9658 33.8451 81.1522 32.7476 81.2764 31.6501C81.3386 31.0495 81.6285 30.6146 82.1876 30.449C83.0366 30.2005 83.8857 29.9934 84.7347 29.8484C85.3146 29.7449 85.7494 29.5378 85.7287 28.8959C85.708 28.2332 85.2524 28.0054 84.6312 27.964ZM79.8683 29.8691C79.5369 29.5585 79.2056 29.2479 78.8329 28.8959C79.1849 28.5852 79.4748 28.316 79.7854 28.0261C80.1375 28.3367 80.4688 28.6681 80.8209 28.9994C80.5309 29.2686 80.2203 29.5378 79.8683 29.8691Z" fill="#078776"/>
<path d="M36.1325 75.4686C36.0497 74.8266 35.5734 74.6816 35.0142 74.6402C33.896 74.5367 33.1091 74.019 32.8399 72.88C32.7156 72.383 32.6121 71.886 32.5293 71.3683C32.4257 70.8299 32.1979 70.4571 31.3282 70.395C31.1832 70.5814 30.8312 70.8299 30.6862 71.1819C30.5205 71.5754 30.4998 72.031 30.4377 72.4658C30.1892 73.8119 29.3816 74.5574 28.0148 74.6402C27.9113 74.6402 27.7663 74.6402 27.7249 74.6816C27.4557 74.9301 27.083 75.1993 27.0208 75.4893C26.9794 75.7378 27.2486 76.1519 27.4971 76.359C27.8078 76.6075 28.2426 76.6903 28.6154 76.856C29.4023 77.1666 29.9614 77.6843 30.1271 78.5748C30.272 79.2996 30.4791 80.0244 30.6448 80.7492C30.769 81.2669 31.059 81.5982 31.5974 81.5982C32.1565 81.5982 32.405 81.2255 32.5293 80.7285C32.6328 80.2936 32.757 79.8794 32.7985 79.4445C32.9641 77.8914 33.8132 76.9595 35.2835 76.5661C35.8426 76.4211 36.2153 76.1105 36.1325 75.4686ZM31.5767 76.9388C31.2453 76.5454 30.914 76.1519 30.5827 75.7792C30.914 75.4271 31.2246 75.0958 31.5145 74.7852C31.8459 75.1165 32.1772 75.4478 32.55 75.8206C32.2186 76.1933 31.8873 76.5661 31.5767 76.9388Z" fill="#078776"/>
<path d="M92.9148 41.5071C92.8527 40.8651 92.3971 40.6994 91.8173 40.658C90.6783 40.5545 89.8914 39.9954 89.6222 38.8357C89.498 38.318 89.3944 37.7796 89.2909 37.2412C89.1873 36.7235 88.8353 36.33 88.3383 36.4542C88.007 36.5371 87.6342 36.9305 87.4686 37.2619C87.2822 37.6346 87.2822 38.1109 87.1993 38.5458C86.9508 39.8711 86.1432 40.5752 84.8179 40.6787C84.2588 40.7202 83.8653 40.9479 83.7825 41.5278C83.7204 42.1076 84.0724 42.4182 84.6108 42.5839C84.88 42.6667 85.1285 42.791 85.3977 42.8945C86.2261 43.2051 86.7645 43.785 86.9508 44.6754C87.0958 45.3795 87.1993 46.1043 87.4478 46.767C87.5721 47.1397 87.9655 47.4089 88.359 47.9059C88.7732 47.4296 89.1045 47.1604 89.2288 46.8291C89.4151 46.3942 89.498 45.8765 89.5601 45.4002C89.7465 43.8885 90.5541 42.9566 92.0037 42.5839C92.5835 42.4389 92.977 42.149 92.9148 41.5071ZM88.359 42.9566C88.2762 42.8531 88.1933 42.7496 88.1105 42.646C87.9448 42.4389 87.7792 42.2526 87.6342 42.0662C87.5514 41.9627 87.4686 41.8798 87.3857 41.7763C87.51 41.652 87.6135 41.5278 87.7378 41.4035C87.9241 41.1964 88.1312 40.9894 88.3176 40.803C88.4004 40.8858 88.4833 40.9687 88.5454 41.0515C88.6903 41.1964 88.8146 41.3414 88.9595 41.4864C89.0631 41.6106 89.1873 41.7142 89.2909 41.8384L89.2702 41.8591C89.0217 42.1697 88.711 42.5425 88.359 42.9566Z" fill="#078776"/>
<path d="M74.7322 82.261C72.33 82.261 69.9279 82.261 67.5257 82.261C66.4489 82.261 66.1797 82.0125 66.1797 80.9564C66.1797 76.1314 66.1797 71.3063 66.1797 66.4606C66.1797 65.4045 66.4282 65.1353 67.505 65.1353C72.33 65.1353 77.1551 65.1353 81.9801 65.1353C83.0569 65.1353 83.2847 65.3838 83.2847 66.4813C83.2847 71.2856 83.2847 76.0899 83.2847 80.8943C83.2847 82.0125 83.0362 82.261 81.918 82.261C79.5365 82.261 77.1344 82.261 74.7322 82.261ZM73.7589 72.7352C73.7589 70.8093 73.7589 68.9456 73.7589 67.0404C71.8538 67.0404 69.9693 67.0404 68.0848 67.0404C68.0848 68.9663 68.0848 70.83 68.0848 72.7352C69.99 72.7352 71.833 72.7352 73.7589 72.7352ZM75.7262 67.0404C75.7262 69.0077 75.7262 70.8714 75.7262 72.7145C77.6521 72.7145 79.5365 72.7145 81.3796 72.7145C81.3796 70.7886 81.3796 68.9249 81.3796 67.0404C79.4537 67.0404 77.6107 67.0404 75.7262 67.0404ZM68.1056 74.6818C68.1056 76.6491 68.1056 78.5128 68.1056 80.3351C70.0314 80.3351 71.9159 80.3351 73.7589 80.3351C73.7589 78.4093 73.7589 76.5662 73.7589 74.6818C71.8538 74.6818 69.99 74.6818 68.1056 74.6818ZM75.7055 80.3351C77.6314 80.3351 79.5158 80.3351 81.4003 80.3351C81.4003 78.4093 81.4003 76.5662 81.4003 74.7025C79.4744 74.7025 77.59 74.7025 75.7055 74.7025C75.7055 76.6076 75.7055 78.4714 75.7055 80.3351Z" fill="#078776"/>
<path d="M94.9439 56.0858C92.169 53.725 89.3941 51.3643 86.6192 49.0242C84.9004 47.5539 83.1609 46.1044 81.6492 44.7997C81.7734 44.1578 82.0426 43.6401 81.8977 43.3087C81.7527 42.9981 81.1936 42.7496 80.7794 42.7082C78.6465 42.5011 77.1762 41.4864 76.5756 39.4156C76.2236 38.2352 76.0372 36.9927 75.8094 35.7916C75.7059 35.2325 75.416 34.8598 74.8569 34.8805C74.277 34.9012 74.0078 35.2739 73.925 35.8331C73.8422 36.5164 73.7179 37.1791 73.5937 37.966C73.3037 37.7382 73.0967 37.5725 72.9103 37.4276C71.295 36.0608 69.6798 34.6734 68.0645 33.3273C65.5381 31.2151 62.3698 31.2151 59.8641 33.3273C57.5033 35.3153 55.1633 37.3033 52.8233 39.2913C52.0985 39.8919 51.3737 40.4924 50.6282 41.1137C50.566 40.9687 50.5453 40.9273 50.5453 40.8859C50.5453 40.3475 50.5453 39.809 50.5453 39.2499C50.5453 38.1938 50.2554 37.9246 49.22 37.9246C46.3001 37.9246 43.3803 37.9246 40.4604 37.9246C39.2386 37.9246 39.0108 38.1524 39.0108 39.3742C39.0108 43.0188 38.9901 46.6635 39.0108 50.3081C39.0108 50.8258 38.8452 51.1572 38.4517 51.4885C36.6294 53.0002 34.807 54.5326 33.0054 56.1065C32.6741 56.3757 32.3842 56.7484 32.2185 57.1212C31.3902 59.0263 32.467 60.8072 34.5585 60.9108C35.8632 60.9729 37.1885 60.9315 38.6174 60.9315C38.6174 61.3664 38.6174 61.677 38.6174 61.9876C38.6174 71.1614 38.6174 80.3352 38.6174 89.5089C38.6174 90.8343 38.783 91.0206 40.1498 91.0206C56.033 91.0206 71.937 91.0206 87.8203 91.0206C89.1663 91.0206 89.332 90.855 89.332 89.4882C89.332 80.2937 89.332 71.0993 89.332 61.8841C89.332 61.5942 89.332 61.2835 89.332 60.9522C90.1603 60.9522 90.8437 60.9522 91.5477 60.9522C92.1069 60.9522 92.6867 60.9522 93.2458 60.9522C94.509 60.9315 95.4409 60.3102 95.8551 59.2334C96.2278 58.0737 95.9379 56.9348 94.9439 56.0858ZM74.8776 40.3682C75.4574 42.0041 76.5342 43.1431 78.2323 43.93C76.2857 44.8204 75.3746 46.3321 74.8569 48.1752C74.2977 46.3529 73.3866 44.8412 71.5021 43.93C73.2002 43.1431 74.2563 42.0041 74.8776 40.3682ZM40.8746 39.809C43.4424 39.809 46.0102 39.809 48.6402 39.809C48.6402 40.7409 48.6609 41.6314 48.6195 42.5218C48.6195 42.6668 48.4952 42.8739 48.371 42.9774C45.9481 45.0275 43.5252 47.0776 41.1024 49.1278C41.0609 49.1692 40.9781 49.1692 40.8539 49.2313C40.8746 46.0629 40.8746 42.9567 40.8746 39.809ZM37.9133 58.5707C37.4163 58.9849 36.5672 59.0056 35.8632 59.192C35.8425 59.1299 35.8218 59.0677 35.8218 59.0056C35.4697 59.0056 35.0763 59.0677 34.7449 58.9849C34.4136 58.9021 33.9373 58.7157 33.8545 58.4672C33.7509 58.198 33.958 57.701 34.1858 57.4732C35.1177 56.6035 36.091 55.8165 37.0642 55.0089C44.9127 48.3616 52.7404 41.7142 60.5889 35.0668C62.9082 33.0996 64.979 33.0996 67.319 35.0876C69.0585 36.5578 70.7773 38.0281 72.5375 39.4777C72.931 39.809 73.0138 40.099 72.7239 40.5131C72.5375 40.7823 72.3512 41.0722 72.1234 41.3207C71.1294 42.3562 70.798 42.3562 69.7212 41.445C68.603 40.4924 67.4847 39.5398 66.3458 38.5873C64.7719 37.2619 63.0946 37.2619 61.5207 38.5873C53.6516 45.276 45.8031 51.9441 37.9133 58.5707ZM58.4145 89.0326C54.9355 89.0326 51.5393 89.0326 48.1018 89.0326C48.0811 88.867 48.0603 88.7427 48.0603 88.6185C48.0603 84.4147 48.0189 80.1902 48.0811 75.9864C48.1018 73.9363 49.0751 72.3625 50.9181 71.4306C52.7197 70.5194 54.5213 70.6644 56.1987 71.8033C57.5447 72.7145 58.3524 74.0398 58.3731 75.6344C58.4559 80.0659 58.4145 84.5182 58.4145 89.0326ZM87.3854 89.0326C78.3773 89.0326 69.3899 89.0326 60.2989 89.0326C60.2989 88.7427 60.2989 88.4735 60.2989 88.2043C60.2989 84.1662 60.3197 80.1488 60.2989 76.1107C60.2782 72.7973 58.1453 70.0224 55.0597 69.2355C50.5868 68.0758 46.2794 71.3685 46.238 76.0278C46.1966 80.0659 46.2173 84.0834 46.2173 88.1215C46.2173 88.4114 46.2173 88.6806 46.2173 89.0119C44.2914 89.0119 42.4277 89.0119 40.5018 89.0119C40.5018 79.6725 40.5018 70.333 40.5018 60.9108C56.1573 60.9108 71.7506 60.9108 87.3854 60.9108C87.3854 70.2916 87.3854 79.6311 87.3854 89.0326ZM40.3983 58.9642C41.8893 57.701 43.256 56.5206 44.6228 55.361C50.6075 50.2874 56.5922 45.2139 62.5976 40.1404C63.6537 39.2499 64.2335 39.2499 65.3103 40.1611C66.2836 40.9894 67.2776 41.8177 68.2509 42.6668C67.4226 43.7022 67.5468 44.1785 68.7272 44.6962C72.434 46.3114 72.5997 46.5185 73.4487 50.4945C73.6351 51.3228 73.8007 52.1719 73.925 53.0002C74.0078 53.58 74.2977 53.8907 74.8983 53.8907C75.4574 53.87 75.7059 53.5386 75.8094 53.0209C76.0165 51.9441 76.2443 50.8673 76.4928 49.6455C80.1789 52.7724 83.7614 55.8165 87.4889 58.9642C71.7299 58.9642 56.1573 58.9642 40.3983 58.9642ZM94.0534 58.4879C93.8671 58.7571 93.4115 58.9228 93.0594 59.0056C92.7281 59.0885 92.3347 59.0263 91.7962 59.0263C90.8851 59.2955 90.0982 58.7571 89.2905 58.0737C85.4388 54.7604 81.5456 51.4678 77.6525 48.2166C77.0727 47.7196 77.1348 47.3676 77.5282 46.8913C77.6525 46.7256 77.7974 46.5599 77.9424 46.4357C79.0814 45.3174 79.3299 45.2967 80.5309 46.3114C84.9004 50.0182 89.2698 53.725 93.66 57.4318C93.9706 57.6803 94.3226 58.053 94.0534 58.4879Z" fill="#078776"/>
</g>
<circle cx="43" cy="89" r="10.5" fill="white" stroke="#FFE074" stroke-width="5"/>
<defs>
<clipPath id="clip0_574_2095">
<rect width="69" height="68.9379" fill="white" transform="translate(27 22)"/>
</clipPath>
</defs>
</svg>
