<svg width="107" height="106" viewBox="0 0 107 106" fill="none" xmlns="http://www.w3.org/2000/svg">
<circle cx="48" cy="46.5" r="42.5" fill="#CBFFF8"/>
<g clip-path="url(#clip0_574_2015)">
<path d="M90.9764 24.7803C90.2091 25.5663 89.5915 26.2213 88.9365 26.8576C88.6745 27.1196 88.7307 27.4003 88.7307 27.6998C88.7307 37.4312 88.712 47.1627 88.7494 56.8942C88.7494 57.6241 88.5622 57.7738 87.8698 57.7551C86.485 57.6989 86.485 57.7364 86.485 56.3141C86.485 47.0317 86.4849 37.7307 86.5037 28.4483C86.5037 27.812 86.3165 27.7185 85.7364 27.7185C79.7852 27.7372 73.834 27.7185 67.8828 27.7372C67.3588 27.7372 67.1717 27.6436 67.1717 27.0635C67.2091 25.4915 67.1717 25.4915 68.7811 25.4915C74.7136 25.4915 80.6273 25.4915 86.5598 25.4915C86.9528 25.4915 87.2522 25.3979 87.533 25.0985C88.0944 24.4996 88.6745 23.9382 89.3295 23.3019C69.4923 23.3019 49.7299 23.3019 29.8177 23.3019C30.5663 24.0317 31.24 24.6867 31.9138 25.3417C32.157 25.585 32.4378 25.4727 32.7185 25.4727C40.5598 25.4727 48.4011 25.4915 56.2425 25.454C56.9349 25.454 57.1033 25.6225 57.0659 26.2962C57.0098 27.7185 57.0472 27.7185 55.6436 27.7185C48.214 27.7185 40.8031 27.7185 33.3735 27.6998C32.8308 27.6998 32.681 27.812 32.681 28.3735C32.6998 36.1961 32.681 44 32.6998 51.8226C32.6998 52.3653 32.5875 52.5151 32.026 52.5151C30.454 52.4776 30.454 52.4963 30.454 50.9243C30.454 43.1953 30.454 35.4849 30.4727 27.7559C30.4727 27.2506 30.3417 26.895 29.9675 26.5395C29.406 26.0155 28.9007 25.454 28.2644 24.7803C28.2644 44.6924 28.2644 64.4361 28.2644 84.3295C29.013 83.581 29.7242 82.8885 30.3979 82.1399C30.5102 82.0277 30.454 81.7469 30.454 81.5411C30.454 75.3653 30.4727 69.1709 30.4353 62.9951C30.4353 62.3963 30.5476 62.153 31.2213 62.1904C32.6998 62.2465 32.6998 62.2091 32.6998 63.6875C32.6998 69.4142 32.7185 75.122 32.681 80.8487C32.681 81.4101 32.8495 81.5224 33.3735 81.5224C50.7966 81.5037 68.2384 81.5224 85.6615 81.4849C86.3539 81.4849 86.5037 81.6534 86.485 82.3084C86.4288 83.7307 86.4662 83.7307 85.0252 83.7307C67.6021 83.7307 50.1603 83.7307 32.7372 83.712C32.2506 83.712 31.9138 83.8242 31.5769 84.1798C31.0529 84.76 30.454 85.284 29.7429 85.9577C30.192 85.9577 30.4353 85.9577 30.6786 85.9577C49.9544 85.9577 69.2303 85.9577 88.5061 85.939C89.1798 85.939 89.3483 86.1074 89.3295 86.7624C89.2734 88.1847 89.3108 88.1847 87.8698 88.1847C67.808 88.1847 47.7274 88.1847 27.6656 88.1847C26.2807 88.1847 26 87.8853 26 86.5004C26 65.2408 26 43.9626 26 22.6843C26 21.2994 26.2994 21 27.6656 21C48.9439 21 70.2221 21 91.5191 21C92.9227 21 93.2221 21.2994 93.2221 22.6656C93.2221 35.4475 93.2221 48.2482 93.2408 61.0301C93.2408 61.6851 93.1286 61.9097 92.4174 61.8722C90.9764 61.8161 90.9764 61.8535 90.9764 60.4125C90.9764 48.8657 90.9764 37.319 90.9764 25.7535C90.9764 25.4915 90.9764 25.2482 90.9764 24.7803Z" fill="#078776"/>
<path d="M57.1225 78.5656C56.8979 78.734 56.6546 78.8463 56.4862 79.0334C55.4569 80.044 55.4756 80.044 54.4464 79.0334C48.9817 73.5688 43.5359 68.1042 38.0525 62.6583C37.6221 62.2279 37.6034 62.022 38.0525 61.5916C39.1567 60.5623 39.138 60.5436 40.2047 61.6103C45.6693 67.0749 51.1339 72.5395 56.5798 77.9854C56.7108 78.1351 56.8418 78.2848 57.1225 78.5656Z" fill="#078776"/>
<path d="M83.4902 50.9056C83.378 50.812 83.2844 50.7371 83.1721 50.6435C77.4268 45.2538 71.6815 39.8641 65.9174 34.4743C65.6367 34.2123 65.5806 34.0439 65.8987 33.7632C66.3291 33.3889 66.6473 32.6216 67.1151 32.6216C67.5269 32.6216 67.9386 33.2953 68.3503 33.6696C73.7588 38.7412 79.1672 43.8128 84.5944 48.8657C84.95 49.2025 85.0061 49.3897 84.6318 49.7265C84.3137 49.9885 84.0517 50.3441 83.771 50.6435C83.6774 50.7371 83.5838 50.812 83.4902 50.9056Z" fill="#078776"/>
<path d="M73.8523 31.4429C73.9833 31.5552 74.0769 31.6487 74.1892 31.7423C76.9589 34.512 79.7286 37.2818 82.4984 40.0515C82.7042 40.2574 82.7791 40.3884 82.5358 40.6691C81.2819 42.0352 81.3007 42.0352 79.9906 40.7439C77.5578 38.3111 75.1436 35.8782 72.7107 33.4827C72.299 33.071 72.3365 32.8465 72.7295 32.5283C73.0289 32.285 73.2909 31.9669 73.5716 31.6862C73.6652 31.5926 73.74 31.5364 73.8523 31.4429Z" fill="#078776"/>
<path d="M45.3697 77.7608C45.2574 77.6673 45.1452 77.5737 45.0516 77.4801C42.2819 74.7104 39.5121 71.9406 36.7424 69.1709C36.4991 68.9276 36.4617 68.7966 36.7237 68.5159C37.9588 67.2246 37.9588 67.2059 39.2127 68.4598C41.6456 70.8926 44.0972 73.3442 46.5487 75.7771C46.8856 76.114 46.9605 76.3198 46.5487 76.638C46.2306 76.9 45.9499 77.2181 45.6504 77.5175C45.5756 77.6111 45.482 77.686 45.3697 77.7608Z" fill="#078776"/>
<path d="M94.7757 70.2561C93.7651 69.283 92.792 68.2724 91.8001 67.2993C91.5943 67.0934 91.4258 66.9624 91.7065 66.6443C92.2867 65.9705 92.2305 65.5027 91.5568 64.829C86.4852 59.7386 81.3949 54.667 76.3233 49.5767C75.9303 49.1837 75.5186 49.0153 74.9572 49.0153C72.3746 49.034 69.7733 49.0153 67.1907 49.0153C64.5519 49.0153 61.9132 49.0153 59.2745 49.0153C58.4885 49.0153 57.3656 47.8924 57.3656 47.0877C57.3656 44.7297 57.3656 42.3717 57.3469 40.0137C57.3469 39.5832 57.4592 39.2838 57.7586 38.9844C60.4535 36.3269 63.1109 33.6508 65.7871 30.9746C66.517 30.2447 66.4982 29.7207 65.7871 28.9909C64.8327 28.0364 63.8782 27.082 62.9238 26.1276C62.0629 25.2667 61.5951 25.2667 60.7529 26.1276C57.8709 29.0096 54.9702 31.9103 52.0882 34.7923C50.9653 35.9152 50.984 35.8965 52.0694 37.0381C52.425 37.4124 52.6309 37.4685 53.0239 37.0568C55.5129 34.5303 58.0206 32.0226 60.5471 29.5336C60.9775 29.1032 61.3518 28.3546 61.8571 28.392C62.2875 28.4107 62.6805 29.1406 63.1297 29.5149C63.5975 29.8892 63.5227 30.1325 63.1297 30.5255C53.8847 39.6768 44.6773 48.903 35.4511 58.1479C35.0955 58.5035 34.8522 58.6532 34.4966 58.1666C34.2533 57.8485 33.9726 57.5678 33.6545 57.3245C33.2053 56.9689 33.2802 56.7443 33.6545 56.3701C38.8196 51.2423 43.9661 46.0771 49.1126 40.9307C49.5056 40.5377 50.2167 40.1821 50.1793 39.7142C50.1419 39.2838 49.4681 38.9095 49.1126 38.4978C48.8131 38.1422 48.6447 38.2171 48.3453 38.5165C42.5625 44.318 36.7611 50.1007 30.9783 55.9022C30.2859 56.5946 30.2859 57.1373 30.9783 57.8298C31.9327 58.7842 32.8872 59.7386 33.8416 60.6931C34.7212 61.5727 35.189 61.5727 36.0686 60.6931C38.7074 58.0544 41.3648 55.4156 43.9848 52.7769C44.2655 52.4775 44.5463 52.3652 44.958 52.3839C46.7171 52.4026 48.4763 52.5149 50.198 52.3652C51.7326 52.2342 52.8367 52.6833 53.6976 53.9185C53.7163 53.9372 53.735 53.9559 53.7537 53.9746C54.0157 54.1805 54.0345 54.3489 53.7912 54.6296C51.9572 56.7631 53.0426 59.7012 55.8123 60.2065C56.1118 60.2626 56.224 60.3188 56.2615 60.6369C56.5422 62.3025 57.534 63.2757 59.1809 63.5564C59.5178 63.6125 59.5552 63.7248 59.6113 64.0242C59.8733 65.6337 60.9026 66.663 62.4934 66.925C62.8302 66.9811 62.9238 67.0747 62.9799 67.4115C63.2794 69.2081 64.6081 70.3123 66.4421 70.3123C67.0971 70.3123 67.7521 70.3684 68.4071 70.2936C69.1931 70.2187 69.7358 70.4994 70.2786 71.0796C72.2061 73.1382 74.1712 75.178 76.1549 77.1805C77.7082 78.7525 80.141 78.6028 81.4323 76.881C81.8066 76.3945 82.0873 75.9079 82.7049 75.6085C83.1353 75.3839 83.2851 75.4026 83.5845 75.7207C86.1671 78.322 88.7684 80.9046 91.351 83.5059C92.4177 84.5727 92.399 84.5539 93.5031 83.5246C93.9523 83.0942 93.9336 82.8884 93.5031 82.4579C90.696 79.6882 87.9262 76.881 85.1191 74.1113C84.8571 73.8493 84.7261 73.6809 85.0629 73.344C86.5788 71.8843 88.0572 70.3871 89.517 68.89C89.779 68.628 89.9287 68.6093 90.172 68.89C90.8831 69.6386 91.613 70.3497 92.3428 71.0796C93.5593 72.296 93.5593 72.296 94.7757 71.0234C95.0751 70.6679 95.0564 70.5181 94.7757 70.2561ZM52.4063 50.0072C51.4706 50.4002 50.2541 50.1194 49.1687 50.1194C48.3827 50.1194 47.5967 50.1194 46.8481 50.1194C49.6179 47.331 52.3876 44.58 55.1573 41.8102C55.1573 43.5694 55.1573 45.366 55.1573 47.1439C55.1573 47.3497 55.1012 47.4994 54.9515 47.6304C54.8953 47.6679 54.8579 47.724 54.8017 47.7801C53.997 48.5474 53.342 49.6142 52.4063 50.0072ZM55.9808 49.82C57.272 50.9803 58.5821 52.1593 59.8921 53.3196C59.8546 53.3757 59.8359 53.4319 59.7985 53.488C58.7692 53.488 57.7212 53.488 56.6919 53.488C56.5048 53.488 56.3925 53.4319 56.2615 53.3009C56.1492 53.1886 56.0369 53.0763 55.9246 52.9453C55.438 52.3839 54.8392 51.9347 54.4275 51.3172C55.0076 50.7557 55.6065 50.1943 55.9808 49.82ZM79.5983 75.5897C79.1117 76.1137 78.3445 76.1699 77.8017 75.6272C76.0987 73.9054 74.4332 72.165 72.6553 70.3123C73.7781 70.3123 74.7326 70.331 75.6683 70.3123C75.949 70.3123 76.0987 70.462 76.2485 70.6304C77.3339 71.7159 78.4193 72.8013 79.5048 73.8867C80.0475 74.392 80.0662 75.0657 79.5983 75.5897ZM88.9555 66.2513C86.7659 68.3847 84.6138 70.5556 82.4803 72.7264C82.1248 73.082 81.8815 73.1943 81.5633 72.7264C81.4698 72.5954 81.3575 72.4832 81.2265 72.3896C80.8335 72.1089 80.8709 71.8656 81.2078 71.5287C82.7423 70.0316 84.2395 68.497 85.7741 66.9998C86.1109 66.663 86.1109 66.4758 85.7554 66.1951C85.3436 65.8395 85.0068 65.2033 84.5951 65.1471C84.1459 65.091 83.8091 65.7834 83.4348 66.1577C82.1622 67.4115 80.8896 68.6841 79.6358 69.9754C79.3363 70.2749 79.1117 70.4246 78.831 69.9941C77.652 68.2724 76.0052 67.8794 73.984 68.0104C71.5511 68.1788 69.0808 68.0478 66.648 68.0478C65.6 68.0478 65.2257 67.6735 65.2257 66.6068C65.2257 66.3823 65.2257 66.139 65.2257 65.9144C65.207 65.1284 64.7765 64.7167 64.0092 64.698C61.9506 64.6231 61.9506 64.6231 61.8758 62.5645C61.8384 61.7785 61.4454 61.3668 60.6594 61.3294C60.5658 61.3294 60.4722 61.3294 60.3786 61.3294C58.7131 61.3294 58.5072 61.1235 58.5072 59.4205C58.5072 58.3351 58.1329 57.9608 57.0288 57.9608C56.7668 57.9608 56.5235 57.9795 56.2615 57.9608C55.6065 57.9233 55.1573 57.4555 55.1573 56.8379C55.1573 56.2203 55.6065 55.7525 56.2615 55.7338C57.141 55.715 58.0393 55.7338 58.9189 55.7338C61.9506 55.7338 64.9824 55.7338 68.0141 55.7525C68.4445 55.7525 68.5943 55.6776 68.5943 55.191C68.5755 53.5068 68.5943 53.5068 66.91 53.5068C65.7684 53.5068 64.6268 53.488 63.4852 53.5068C63.1858 53.5068 62.9799 53.3945 62.7554 53.2073C62.1378 52.6459 61.4828 52.1032 60.8465 51.5605C60.9214 51.4669 60.9962 51.3733 61.0524 51.2797C62.4372 51.2797 63.8408 51.2797 65.2257 51.2797C68.2387 51.2797 71.2517 51.2797 74.246 51.2797C74.6577 51.2797 74.9384 51.392 75.2192 51.6727C79.7855 56.2578 84.3518 60.8241 88.9181 65.3717C89.2737 65.6898 89.3672 65.8583 88.9555 66.2513Z" fill="#078776"/>
</g>
<circle cx="38.5" cy="89" r="10.5" fill="white" stroke="#FFE074" stroke-width="5"/>
<defs>
<clipPath id="clip0_574_2015">
<rect width="69" height="67.2221" fill="white" transform="translate(26 21)"/>
</clipPath>
</defs>
</svg>
