<svg width="107" height="106" viewBox="0 0 107 106" fill="none" xmlns="http://www.w3.org/2000/svg">
<circle cx="53" cy="46.5" r="42.5" fill="#CBFFF8"/>
<g clip-path="url(#clip0_574_2113)">
<path d="M38.388 48.8389C38.388 49.8841 38.388 49.8841 37.3428 49.8841C36.2256 49.8841 36.2256 49.8841 36.2256 48.7669C36.2256 47.7217 36.2256 47.7217 37.2708 47.7217C38.388 47.7217 38.388 47.7217 38.388 48.8389Z" fill="#078776"/>
<path d="M43.722 96.3587C42.7129 96.3587 42.7129 96.3587 42.7129 95.3496C42.7129 94.1963 42.7129 94.1963 43.8482 94.1963C44.8573 94.1963 44.8573 94.1963 44.8573 95.2054C44.8573 96.3587 44.8573 96.3587 43.722 96.3587Z" fill="#078776"/>
<path d="M101.658 58.6061C99.2429 44.5682 84.6103 35.7382 71.0951 40.1352C59.1476 44.0456 52.2818 56.3355 55.2732 68.5353C55.4354 69.2021 55.3092 69.3102 54.6785 69.3102C47.9569 69.2741 41.2533 69.2922 34.5317 69.2741C33.883 69.2741 33.3424 69.4003 33 69.9949C33 70.932 33 71.8871 33 72.8241C33.1261 73.3828 33.5046 73.6351 34.0272 73.7612C34.8561 73.9594 35.3066 74.6262 35.7932 75.2389C35.9914 75.4731 35.8833 75.5993 35.5949 75.6173C35.1444 75.6353 34.6939 75.6353 34.2434 75.6173C33.6127 75.5993 33.1442 75.7975 33 76.4643C33 77.4013 33 78.3564 33 79.2935C33.1261 79.8521 33.5046 80.1044 34.0272 80.2305C34.8561 80.4287 35.3066 81.0955 35.7932 81.7082C35.9914 81.9425 35.8833 82.0686 35.5949 82.0866C35.1444 82.1046 34.6939 82.1046 34.2434 82.0866C33.6127 82.0686 33.1442 82.2668 33 82.9336C33 83.8706 33 84.8257 33 85.7628C33.3063 86.1953 33.6487 86.5196 34.2254 86.5557C34.5498 86.5737 34.784 86.808 35.0183 87.0242C35.4868 87.4567 35.9013 87.9432 36.2256 88.4838C37.2708 90.2138 38.8026 90.8806 40.8028 90.8625C49.777 90.8265 58.7331 90.8445 67.7072 90.8445C71.3293 90.8445 74.9514 90.8445 78.5555 90.8445C80.2134 90.8445 81.5108 90.1958 82.4299 88.8082C82.7002 88.3937 82.9885 87.9973 83.3129 87.6189C83.7814 87.0602 84.268 86.5557 85.0609 86.4656C85.4753 86.4115 85.7817 86.0871 85.8177 85.7087C85.8718 85.2942 86.106 85.2041 86.3944 85.096C97.2967 81.1676 103.622 70.1391 101.658 58.6061ZM35.1985 71.5267C51.3628 71.5267 67.509 71.5267 83.6733 71.5267C82.3218 72.3016 81.4388 73.4909 80.6278 74.7343C80.1233 75.5092 79.4025 75.7795 78.5014 75.7795C73.5098 75.7615 68.5182 75.7795 63.5445 75.7795C55.9039 75.7795 48.2633 75.7615 40.6226 75.7975C39.5054 75.7975 38.7125 75.4191 38.0998 74.464C37.3429 73.2927 36.4779 72.2295 35.1985 71.5267ZM85.8537 70.3554C85.8357 69.7427 85.4753 69.3642 84.8446 69.2922C84.6284 69.2741 84.3941 69.2741 84.1779 69.2741C77.8887 69.2741 71.5996 69.2741 65.3105 69.2922C64.842 69.2922 64.6077 69.166 64.4275 68.7155C60.5351 59.6873 66.4098 49.1814 76.1227 47.8299C85.6375 46.5144 93.9089 53.9748 93.3863 63.5617C93.0979 68.8597 90.5571 72.9323 86.07 75.7615C85.7817 75.9417 85.5474 75.9777 85.169 75.8516C84.3761 75.5993 83.5291 75.8155 82.52 75.7254C83.2949 74.7703 83.7994 73.7432 85.0609 73.5269C85.5834 73.4368 85.8538 73.0224 85.8718 72.4998C85.8718 71.797 85.8718 71.0762 85.8537 70.3554ZM35.2165 77.978C51.3628 77.978 67.527 77.978 83.6733 77.978C82.1596 78.8249 81.3126 80.2305 80.3395 81.546C79.9791 82.0145 79.4385 82.2128 78.8618 82.2488C78.6456 82.2668 78.4113 82.2488 78.1951 82.2488C65.689 82.2488 53.1648 82.2488 40.6587 82.2668C39.5234 82.2668 38.6944 81.9064 38.0637 80.9153C37.3249 79.762 36.4599 78.7168 35.2165 77.978ZM83.6553 84.5914C82.3578 85.2942 81.4388 86.3935 80.6639 87.6189C80.1773 88.3937 79.4926 88.7361 78.5735 88.7361C65.8151 88.7361 53.0567 88.7361 40.2802 88.7361C39.5774 88.7361 38.9287 88.5559 38.4962 87.9793C37.5411 86.6818 36.6942 85.2942 35.1264 84.5914C35.1624 84.5374 35.1805 84.5013 35.2165 84.4473C51.3628 84.4473 67.509 84.4473 83.6553 84.4473C83.6553 84.5194 83.6733 84.5914 83.6553 84.5914ZM86.6106 82.7534C86.1781 82.9336 85.8357 83.1498 85.5114 82.5732C85.3312 82.2488 84.9347 82.2668 84.5923 82.2668C83.9436 82.2668 83.3129 82.2668 82.4839 82.2668C83.2768 81.2397 83.8355 80.2125 85.1329 79.9963C85.6555 79.9062 85.8718 79.4376 85.8357 78.915C85.7997 78.5006 85.9619 78.3023 86.3223 78.0861C92.6474 74.482 95.801 69.0218 95.4946 61.7596C95.1883 53.5424 88.7911 46.7487 80.6459 45.6674C71.2032 44.406 62.5354 50.9474 61.2199 60.3901C60.8235 63.2013 61.1118 65.9584 62.0669 68.6254C62.1389 68.8056 62.193 69.0038 62.3011 69.2922C60.8235 69.2922 59.3998 69.2922 57.9762 69.2922C57.5978 69.2922 57.6338 68.9678 57.5798 68.7696C56.913 66.4089 56.5887 64.0122 56.7689 61.5614C57.3275 54.2632 60.6432 48.5687 66.7702 44.5682C77.5283 37.5403 92.4312 41.9012 97.8373 53.6144C103.027 64.8591 97.9815 77.9239 86.6106 82.7534Z" fill="#078776"/>
<path d="M49.4709 58.7142C47.3264 57.9033 45.8668 56.4256 45.0379 54.2812C44.8577 53.8126 44.5153 53.4883 43.9747 53.4883C43.434 53.4883 43.0736 53.7946 42.8934 54.2632C42.0825 56.4076 40.6229 57.8853 38.4604 58.6962C37.9919 58.8764 37.6855 59.2188 37.6855 59.7594C37.6855 60.318 37.9919 60.6424 38.4604 60.8226C40.5868 61.6515 42.0825 63.1112 42.8934 65.2556C43.0736 65.7241 43.416 66.0485 43.9566 66.0485C44.4972 66.0485 44.8036 65.7061 45.0379 65.2556C45.128 65.0754 45.2541 64.9132 45.3262 64.715C45.9929 63.003 47.1282 61.7777 48.8762 61.1289C49.1825 61.0208 49.4709 60.8226 49.7592 60.6424C50.0836 60.4441 50.2457 60.1198 50.2638 59.7594C50.2457 59.2548 49.9394 58.8944 49.4709 58.7142ZM43.9747 62.7327C43.434 61.3091 42.515 60.336 41.0554 59.7954C42.479 59.2548 43.434 58.2997 43.9566 56.8581C44.4972 58.2997 45.4703 59.2548 46.912 59.7954C45.4523 60.318 44.4972 61.2731 43.9747 62.7327Z" fill="#078776"/>
<path d="M99.1528 90.2497C97.0084 89.3487 95.4586 87.907 94.6297 85.7086C94.4675 85.2581 94.1251 84.9697 93.6025 84.9697C93.0619 84.9697 92.7556 85.2941 92.5213 85.7266C92.1068 86.5015 91.6743 87.2583 91.2779 88.0332C91.0617 88.4477 90.7733 88.736 90.3589 88.9522C89.5479 89.3667 88.737 89.8172 87.9441 90.2677C87.0972 90.7543 87.0972 91.7093 87.9261 92.2139C88.1784 92.3761 88.4127 92.5383 88.683 92.6284C90.3769 93.2771 91.5662 94.4304 92.215 96.1424C92.3231 96.4307 92.5033 96.701 92.6655 96.9713C92.8817 97.3137 93.1881 97.5119 93.6025 97.5479C93.999 97.5299 94.3053 97.3858 94.5035 97.0614C94.6837 96.7731 94.882 96.4847 94.9901 96.1784C95.6388 94.4845 96.7921 93.2951 98.5041 92.6464C98.7383 92.5563 98.9366 92.4121 99.1528 92.286C100.126 91.7454 100.18 90.7002 99.1528 90.2497ZM93.5845 94.1962C93.0259 92.7725 92.0888 91.8175 90.6472 91.2769C92.0888 90.7362 93.0439 89.7812 93.5845 88.3215C94.1071 89.7992 95.1162 90.7182 96.7381 91.2769C95.0802 91.7994 94.1431 92.7365 93.5845 94.1962Z" fill="#078776"/>
<path d="M51.3265 39.0723C48.9839 39.0723 47.0377 40.9824 47.0197 43.3431C47.0016 45.7398 48.9298 47.704 51.3085 47.722C53.6872 47.7401 55.6514 45.7939 55.6514 43.4152C55.6694 41.0185 53.7232 39.0723 51.3265 39.0723ZM51.2725 45.5596C50.1192 45.5236 49.1641 44.5324 49.1821 43.3791C49.2001 42.1718 50.2093 41.2167 51.3986 41.2527C52.5699 41.2888 53.507 42.2619 53.489 43.4332C53.4709 44.6225 52.4798 45.5776 51.2725 45.5596Z" fill="#078776"/>
<path d="M85.8535 64.9496C85.8535 63.9404 85.8535 63.9404 86.8627 63.9404C88.016 63.9404 88.016 63.9404 88.016 65.0937C88.016 66.1029 88.016 66.1029 87.0068 66.1029C85.8535 66.0849 85.8535 66.0849 85.8535 64.9496Z" fill="#078776"/>
<path d="M79.3845 58.4439C79.2764 58.0835 79.2764 57.7591 79.3845 57.3987C79.6728 56.4616 79.9611 55.5066 80.2134 54.5515C80.4477 53.6505 79.7809 53.0017 78.8619 53.218C78.5555 53.2901 78.2492 53.3621 77.9609 53.4703C76.3931 54.119 74.8253 54.2632 73.2395 53.5243C72.9152 53.3802 72.5548 53.3081 72.2124 53.218C71.2213 52.9837 70.5545 53.6505 70.8248 54.6236C71.0771 55.5606 71.3474 56.4797 71.6357 57.3987C71.7438 57.7591 71.7438 58.0835 71.6357 58.4439C71.3474 59.3809 71.0591 60.336 70.8068 61.2911C70.6086 62.0299 71.1131 62.6967 71.9241 62.6967C72.0142 62.6787 72.1944 62.6607 72.3565 62.5886C74.4649 61.6335 76.5553 61.7056 78.6997 62.5706C79.7809 63.003 80.5017 62.2282 80.1774 61.0929C79.9431 60.2099 79.6728 59.3269 79.3845 58.4439ZM73.4558 60.0117C74.0685 58.6061 74.1225 57.2545 73.4378 55.849C74.8433 56.4797 76.1769 56.4977 77.5824 55.867C76.9878 57.2726 76.9517 58.6061 77.6005 59.9936C76.1949 59.3629 74.8434 59.3629 73.4558 60.0117Z" fill="#078776"/>
</g>
<circle cx="43.5" cy="89" r="10.5" fill="white" stroke="#FFE074" stroke-width="5"/>
<defs>
<clipPath id="clip0_574_2113">
<rect width="69" height="58.5662" fill="white" transform="translate(33 39)"/>
</clipPath>
</defs>
</svg>
