<svg width="140" height="109" viewBox="0 0 140 109" fill="none" xmlns="http://www.w3.org/2000/svg">
<g clip-path="url(#clip0_1212_85)">
<path d="M68.5669 0C68.6018 2.47326 68.6591 4.94587 68.6183 7.41978C68.5715 10.2521 68.4958 13.0837 68.2891 15.9094C68.054 19.1792 67.715 22.4339 66.9789 25.6364C66.7218 26.7476 66.3886 27.8401 65.9814 28.9061C65.6068 29.893 64.8964 30.6385 64.1972 31.3866C62.1792 33.5446 59.8478 35.3404 57.4473 37.0479C52.6489 40.4622 47.5793 43.4449 42.426 46.2916C41.8559 46.6068 41.8539 46.6068 41.5477 46.0195C39.9676 42.9819 38.8483 39.7808 38.3697 36.3979C36.9449 26.3368 39.6311 17.4861 46.5601 9.98983C50.8943 5.30489 56.2648 2.29211 62.4945 0.807634C64.1778 0.404608 65.8941 0.152263 67.6228 0.0536248C67.7189 0.0483932 67.8203 0.0647416 67.9085 0H68.5669Z" fill="#078776"/>
<path d="M71.4625 0C72.0491 0.0614718 72.6351 0.122287 73.221 0.185721C76.3892 0.529702 79.4409 1.32361 82.3464 2.6204C90.0654 6.06675 95.6005 11.6533 98.9518 19.38C100.031 21.8931 100.754 24.543 101.099 27.2536C101.98 33.9545 100.835 40.2937 97.6626 46.2713C97.5724 46.442 97.5178 46.5479 97.2847 46.421C91.8892 43.49 86.5963 40.3935 81.6031 36.8157C79.2263 35.1154 76.9647 33.2778 74.9322 31.1616C73.6325 29.8086 73.0367 28.1652 72.5863 26.4257C71.9852 24.1035 71.6415 21.7375 71.3868 19.3564C71.0279 16.0069 70.8798 12.6468 70.7942 9.28159C70.7132 6.18707 70.7593 3.09386 70.8074 0H71.4625Z" fill="#078776"/>
<path d="M69.6701 62.9838C61.8708 62.8883 54.9813 60.368 49.0426 55.3273C46.8014 53.415 44.8412 51.2 43.2191 48.7472C43.1059 48.5772 43.0598 48.4856 43.2849 48.3548C48.5198 45.2217 53.841 42.2488 59.4195 39.7527C61.8049 38.6854 64.2311 37.7254 66.7672 37.0597C67.602 36.8339 68.4526 36.6704 69.3119 36.5705C70.1316 36.4829 70.9263 36.6778 71.717 36.8498C74.402 37.4337 76.946 38.4284 79.4505 39.5271C84.7058 41.8323 89.7215 44.5926 94.6595 47.5053C95.1203 47.7774 95.5713 48.069 96.0421 48.3221C96.2936 48.4568 96.289 48.5615 96.1408 48.7799C93.1399 53.283 89.256 56.8235 84.453 59.3609C81.2657 61.046 77.805 62.1617 74.2288 62.6568C72.7186 62.8694 71.1954 62.9787 69.6701 62.9838Z" fill="#195D7E"/>
<path d="M70.8887 109C70.8887 104.391 70.8904 99.7813 70.8939 95.1722C70.8875 95.0089 70.8943 94.8453 70.9143 94.6831C71.0118 94.0913 71.447 93.6211 72.0033 93.506C72.6361 93.3752 73.1608 93.5661 73.5249 94.0945C74.0424 94.8505 74.5375 95.6215 75.0392 96.3866L79.0152 102.425C79.0745 102.516 79.137 102.605 79.2128 102.715C79.3148 102.591 79.2714 102.458 79.2714 102.34C79.2746 99.5073 79.2786 96.6737 79.2667 93.8388C79.2667 93.5341 79.326 93.4236 79.6572 93.436C80.3913 93.4628 81.1274 93.4504 81.8621 93.4406C82.0662 93.4406 82.1466 93.4805 82.1459 93.7067C82.1393 98.3054 82.1369 102.905 82.1387 107.505C82.1387 108.211 81.766 108.702 81.0964 108.926C81.0464 108.942 80.9858 108.935 80.9608 108.997H80.4341C79.9344 108.97 79.6315 108.67 79.3714 108.278C77.5681 105.585 75.8029 102.866 74.0016 100.172C73.9357 100.076 73.8501 99.9841 73.8804 99.7898C73.8844 102.712 73.8804 105.571 73.8804 108.432C73.8804 108.628 73.9463 108.856 73.7204 108.994L70.8887 109Z" fill="#195D7E"/>
<path d="M93.6017 109C93.5971 108.913 93.5898 108.826 93.5898 108.738C93.5898 104.163 93.5898 99.5883 93.5898 95.0132C93.5898 94.1493 94.0803 93.5575 94.877 93.477C95.4781 93.4169 95.937 93.6732 96.2649 94.1722C96.85 95.0655 97.4371 95.9579 98.0261 96.8495C99.2678 98.7338 100.51 100.618 101.752 102.502C101.803 102.58 101.857 102.657 101.961 102.808V102.381C101.961 99.5163 101.965 96.652 101.955 93.787C101.955 93.5215 102.014 93.4345 102.294 93.4424C103.039 93.4633 103.786 93.4548 104.532 93.4456C104.734 93.4456 104.821 93.4829 104.821 93.7125C104.813 98.3202 104.811 102.928 104.813 107.536C104.813 108.345 104.331 108.772 103.609 108.999H103.082C102.603 108.948 102.292 108.65 102.048 108.28C100.948 106.613 99.8468 104.947 98.7438 103.283C98.0064 102.167 97.2672 101.048 96.5263 99.9257C96.5355 101.02 96.5263 102.099 96.5302 103.177C96.5302 104.951 96.5302 106.726 96.5302 108.502C96.5302 108.672 96.5658 108.853 96.4341 109.001L93.6017 109Z" fill="#195D7E"/>
<path d="M109.599 109C109.168 108.869 108.843 108.587 108.54 108.267C108.21 107.918 107.863 107.583 107.518 107.248C107.369 107.11 107.252 106.942 107.173 106.757C107.093 106.571 107.054 106.37 107.057 106.168C107.057 102.878 107.057 99.5861 107.057 96.2936C107.053 96.0859 107.093 95.8796 107.174 95.6882C107.256 95.4967 107.377 95.3243 107.529 95.1819C107.961 94.7634 108.385 94.3383 108.809 93.9113C108.958 93.7581 109.137 93.6375 109.335 93.5571C109.533 93.4767 109.746 93.4383 109.96 93.4444C112.287 93.4444 114.613 93.443 116.939 93.4404C117.162 93.4404 117.244 93.4875 117.24 93.7262C117.224 94.4879 117.224 95.2508 117.24 96.0151C117.244 96.2498 117.169 96.3041 116.943 96.3034C114.891 96.2949 112.84 96.2982 110.788 96.2989C110.676 96.297 110.564 96.3172 110.46 96.3584C110.356 96.3996 110.261 96.461 110.181 96.5389C110.101 96.6168 110.037 96.7098 109.994 96.8124C109.95 96.915 109.927 97.0252 109.927 97.1366C109.927 99.8601 109.927 102.585 109.927 105.311C109.931 105.53 110.019 105.739 110.173 105.895C110.327 106.052 110.536 106.143 110.756 106.151C111.843 106.151 112.929 106.151 114.015 106.151C114.41 106.151 114.805 105.759 114.805 105.378C114.805 104.56 114.796 103.743 114.811 102.926C114.815 102.687 114.734 102.64 114.513 102.644C113.8 102.657 113.086 102.644 112.373 102.652C112.176 102.652 112.08 102.626 112.084 102.39C112.099 101.606 112.094 100.821 112.084 100.036C112.084 99.8557 112.13 99.7903 112.323 99.791C114.023 99.7975 115.724 99.7975 117.425 99.791C117.638 99.791 117.677 99.8747 117.676 100.062C117.671 102.099 117.676 104.137 117.671 106.174C117.675 106.382 117.635 106.589 117.554 106.781C117.472 106.972 117.35 107.144 117.197 107.286C116.848 107.617 116.5 107.95 116.165 108.294C115.866 108.603 115.544 108.869 115.124 108.999L109.599 109Z" fill="#195D7E"/>
<path d="M46.1357 109C46.1311 108.881 46.1218 108.761 46.1218 108.641C46.1218 103.706 46.119 98.7698 46.1133 93.8338C46.1133 93.5179 46.1929 93.4414 46.5083 93.4414C49.3499 93.4545 52.1914 93.4545 55.0326 93.4414C55.2841 93.4414 55.371 93.4957 55.3617 93.7612C55.3427 94.5126 55.3459 95.2653 55.3617 96.0167C55.3664 96.2502 55.2906 96.3051 55.0648 96.3038C53.1449 96.2953 51.2251 96.3038 49.3052 96.2927C49.0359 96.2927 48.9536 96.3522 48.9595 96.6301C48.9784 97.5666 48.9784 98.5039 48.9595 99.4421C48.9543 99.7227 49.0161 99.8077 49.3151 99.8051C51.2125 99.79 53.1107 99.8051 55.0082 99.7894C55.3117 99.7894 55.3697 99.8789 55.3624 100.156C55.3433 100.885 55.3453 101.616 55.3624 102.346C55.3683 102.589 55.3038 102.656 55.0543 102.654C53.1568 102.643 51.2586 102.659 49.3611 102.639C49.0135 102.635 48.9523 102.739 48.9595 103.054C48.9806 103.99 48.9753 104.928 48.9595 105.866C48.9595 106.099 49.0319 106.154 49.2565 106.153C51.1763 106.145 53.0962 106.153 55.0154 106.142C55.2893 106.142 55.3677 106.207 55.3611 106.483C55.3413 107.322 55.3506 108.161 55.3486 109L46.1357 109Z" fill="#195D7E"/>
<path d="M24.5436 109C24.1116 108.869 23.7871 108.587 23.4835 108.268C23.1543 107.918 22.8074 107.583 22.4611 107.249C22.3127 107.111 22.1951 106.943 22.1158 106.758C22.0364 106.572 21.997 106.371 22.0002 106.17C22.0002 102.868 22.0002 99.5656 22.0002 96.2635C21.9985 96.067 22.0376 95.8722 22.1149 95.6913C22.1923 95.5104 22.3063 95.3472 22.4499 95.212C22.8949 94.776 23.3372 94.3367 23.7765 93.8942C23.9137 93.7523 24.0787 93.6399 24.2614 93.5639C24.4441 93.4878 24.6405 93.4498 24.8385 93.4522C26.4841 93.4482 28.13 93.4482 29.7765 93.4522C29.9745 93.4495 30.1709 93.4869 30.354 93.562C30.537 93.6371 30.7027 93.7483 30.8411 93.889C31.2697 94.3108 31.697 94.7333 32.1342 95.1472C32.2886 95.2871 32.4117 95.4577 32.4955 95.6478C32.5793 95.838 32.622 96.0435 32.6207 96.2511C32.6253 97.0901 32.6207 97.9298 32.626 98.7688C32.626 98.9402 32.5931 99.0265 32.3923 99.0239C31.5917 99.0147 30.7908 99.0147 29.9898 99.0239C29.7982 99.0239 29.7482 98.9585 29.7515 98.7773C29.7607 98.1999 29.7567 97.6218 29.7515 97.0444C29.7515 96.701 29.3459 96.3041 28.9989 96.3034C27.8796 96.3034 26.7604 96.3034 25.6411 96.3034C25.279 96.3034 24.8662 96.7082 24.8662 97.0646C24.8662 99.8435 24.8662 102.622 24.8662 105.401C24.8662 105.728 25.2902 106.151 25.6227 106.151C26.7533 106.154 27.8836 106.154 29.0134 106.151C29.334 106.151 29.7488 105.739 29.7508 105.422C29.7541 104.843 29.7594 104.266 29.7475 103.689C29.7436 103.492 29.789 103.422 29.9997 103.427C30.7897 103.438 31.5798 103.438 32.3699 103.427C32.5799 103.424 32.6267 103.501 32.6247 103.692C32.6155 104.52 32.6247 105.349 32.6188 106.177C32.622 106.391 32.5796 106.602 32.4943 106.798C32.4091 106.993 32.283 107.169 32.1243 107.312C31.7813 107.633 31.4422 107.96 31.115 108.297C30.8154 108.605 30.4941 108.873 30.0754 109.003L24.5436 109Z" fill="#195D7E"/>
<path d="M84.3842 109C84.3842 108.129 84.3842 107.258 84.375 106.384C84.375 106.197 84.4336 106.141 84.6186 106.144C85.1117 106.155 85.6062 106.136 86.0987 106.153C86.3436 106.161 86.4331 106.107 86.4325 105.837C86.4219 102.754 86.4219 99.6716 86.4325 96.5889C86.4325 96.3666 86.3857 96.2855 86.1467 96.2946C85.6431 96.3136 85.1381 96.2946 84.6324 96.3051C84.427 96.3103 84.373 96.2397 84.3757 96.0435C84.3855 95.2588 84.3868 94.474 84.3757 93.6893C84.3724 93.4748 84.4547 93.4414 84.6449 93.4414C86.7957 93.4475 88.9465 93.4475 91.0972 93.4414C91.2947 93.4414 91.3606 93.4931 91.3606 93.6978C91.3492 94.4825 91.3492 95.2672 91.3606 96.052C91.3606 96.2632 91.2822 96.3057 91.0906 96.3018C90.5758 96.2913 90.0596 96.3077 89.5447 96.294C89.338 96.2887 89.286 96.3594 89.2866 96.5556C89.2919 99.6605 89.2919 102.765 89.2866 105.87C89.2866 106.078 89.3446 106.157 89.5658 106.15C90.0589 106.135 90.5534 106.158 91.0459 106.141C91.2875 106.133 91.3658 106.198 91.3625 106.449C91.3494 107.299 91.3625 108.15 91.3678 109L84.3842 109Z" fill="#195D7E"/>
<path d="M34.8786 109C34.8713 108.869 34.8575 108.739 34.8575 108.608C34.8575 103.686 34.8549 98.7633 34.8496 93.8408C34.8496 93.538 34.9049 93.4249 35.2381 93.4386C35.9498 93.4667 36.6635 93.4608 37.3759 93.4386C37.6537 93.4308 37.7163 93.5145 37.7156 93.7813C37.707 97.7671 37.7156 101.753 37.7024 105.739C37.7024 106.053 37.7571 106.158 38.1041 106.155C39.9897 106.134 41.8753 106.151 43.761 106.138C44.0368 106.138 44.1099 106.21 44.104 106.48C44.0856 107.319 44.0961 108.158 44.0954 108.996L34.8786 109Z" fill="#195D7E"/>
<path d="M68.499 106.253C68.0151 102.808 67.5062 99.3654 67.0144 95.921C66.9702 95.5395 66.7819 95.189 66.4876 94.94C66.0641 94.5764 65.6416 94.2133 65.2202 93.8506C64.9322 93.5932 64.5582 93.4512 64.1708 93.4523C63.4801 93.4523 62.7881 93.4523 62.0988 93.4523C61.7334 93.4471 61.3791 93.5769 61.1046 93.8166C60.6674 94.1958 60.2224 94.5666 59.7786 94.9387C59.5116 95.1527 59.3368 95.4598 59.2901 95.7974C59.0985 97.1203 58.901 98.4433 58.7094 99.7662C58.4113 101.821 58.1148 103.877 57.8199 105.932C57.6737 106.954 57.5348 107.977 57.3926 109H60.2237C60.437 108.869 60.4107 108.643 60.4423 108.447C60.5739 107.61 60.6951 106.77 60.8175 105.932C60.8755 105.539 60.9051 105.513 61.2922 105.511C62.5287 105.507 63.7652 105.507 65.0016 105.511C65.3684 105.511 65.4006 105.547 65.4586 105.916C65.5995 106.807 65.7081 107.703 65.8371 108.597C65.8589 108.75 65.8813 108.9 66.0169 109.002H68.848C68.8078 108.075 68.6274 107.167 68.499 106.253ZM64.6079 102.532H63.1272C62.5676 102.532 62.0079 102.522 61.4489 102.536C61.231 102.542 61.1948 102.471 61.2238 102.275C61.4871 100.51 61.7446 98.7439 61.9961 96.9778C62.0362 96.7031 62.4569 96.3153 62.7361 96.3055C62.9224 96.2996 63.1094 96.3055 63.2957 96.3055C63.9113 96.3055 64.2221 96.5959 64.3057 97.2014C64.5309 98.8289 64.7635 100.455 65.0036 102.081C65.0701 102.533 65.08 102.531 64.6079 102.532Z" fill="#195D7E"/>
<path d="M40.2924 85.5598C39.5023 85.5598 38.7122 85.552 37.9222 85.5598C37.7028 85.568 37.4842 85.5297 37.2808 85.4477C37.0774 85.3656 36.8938 85.2416 36.7423 85.0838C36.319 84.6574 35.891 84.2336 35.4631 83.8118C35.3123 83.6688 35.1934 83.496 35.114 83.3045C35.0346 83.113 34.9965 82.9071 35.0022 82.7001C35.0094 81.8938 35.0114 81.0874 35.0022 80.2805C35.0022 80.064 35.0391 79.9757 35.284 79.981C36.051 79.9973 36.8194 79.996 37.5884 79.981C37.8221 79.977 37.8873 80.0516 37.8814 80.2765C37.8669 80.8317 37.8741 81.3883 37.8774 81.9435C37.8774 82.2901 38.3047 82.7151 38.6536 82.7158C39.7725 82.7184 40.8917 82.7184 42.0115 82.7158C42.3459 82.7158 42.7666 82.2966 42.7693 81.9644C42.7732 81.5504 42.7693 81.1365 42.7693 80.7219C42.7693 80.0627 42.529 79.7566 41.8837 79.6102C40.3602 79.257 38.8367 78.9054 37.3132 78.5553C36.9118 78.4731 36.5534 78.2506 36.3032 77.9282C35.9825 77.5136 35.6566 77.1035 35.3301 76.6935C35.1089 76.4193 34.9923 76.0763 35.0009 75.725C35.0079 74.7772 35.0079 73.8294 35.0009 72.8816C34.9939 72.6799 35.0289 72.4789 35.1036 72.2912C35.1784 72.1035 35.2913 71.9332 35.4354 71.7908C35.8825 71.3409 36.3341 70.8955 36.7838 70.4495C36.9225 70.309 37.0885 70.1979 37.2718 70.1229C37.455 70.0479 37.6516 70.0107 37.8497 70.0134C39.4953 70.0099 41.1413 70.0099 42.7877 70.0134C42.9856 70.0119 43.1817 70.0502 43.3644 70.1259C43.547 70.2017 43.7123 70.3133 43.8504 70.4541C44.2941 70.8901 44.7394 71.3261 45.1862 71.762C45.3256 71.8936 45.4358 72.0525 45.5098 72.2287C45.5839 72.405 45.6201 72.5946 45.6162 72.7855C45.6162 73.6356 45.6076 74.4858 45.6228 75.3359C45.6267 75.5674 45.5358 75.6053 45.335 75.6027C44.5673 75.5949 43.799 75.5916 43.0307 75.6027C42.8035 75.6066 42.7574 75.5223 42.762 75.3182C42.7732 74.7519 42.768 74.1856 42.762 73.618C42.762 73.2779 42.3492 72.8679 42.0101 72.8672C40.8803 72.8672 39.7505 72.8672 38.6207 72.8672C38.2863 72.8672 37.8741 73.2851 37.8715 73.6225C37.8715 74.0254 37.8715 74.4289 37.8715 74.8317C37.8715 75.5197 38.1032 75.8009 38.7735 75.9559C40.2878 76.3038 41.7981 76.6595 43.3105 77.01C43.7211 77.0986 44.086 77.3306 44.3389 77.664C44.6523 78.0701 44.9736 78.4703 45.2916 78.8725C45.5021 79.1271 45.6165 79.4468 45.6149 79.7763C45.6105 80.779 45.6105 81.7817 45.6149 82.7845C45.6194 82.9753 45.5838 83.1651 45.5103 83.3415C45.4368 83.5179 45.3271 83.6772 45.1882 83.8092C44.7352 84.2532 44.2836 84.6986 43.828 85.1394C43.6876 85.2778 43.5204 85.3866 43.3365 85.459C43.1526 85.5314 42.9558 85.5659 42.7581 85.5605C41.9384 85.5559 41.1154 85.5592 40.2924 85.5598Z" fill="#078776"/>
<path d="M71.9636 77.7822C71.9636 75.3096 71.9689 72.8364 71.957 70.3638C71.957 70.0728 72.036 70.0021 72.3244 70.0034C75.1775 70.0148 78.0292 70.0148 80.8796 70.0034C81.1482 70.0034 81.2345 70.0643 81.2272 70.3409C81.2075 71.0703 81.2075 71.7999 81.2272 72.5297C81.2345 72.7978 81.166 72.8756 80.8882 72.8736C78.9907 72.8612 77.0932 72.8736 75.1957 72.8593C74.8816 72.8593 74.8224 72.9541 74.8276 73.2392C74.8452 74.1548 74.8452 75.0703 74.8276 75.9858C74.8224 76.2716 74.8836 76.3697 75.197 76.3671C77.0833 76.3514 78.9703 76.3671 80.8592 76.3514C81.1726 76.3514 81.2384 76.4449 81.2299 76.7333C81.2101 77.4409 81.2048 78.1498 81.2299 78.8567C81.2424 79.1725 81.1304 79.2229 80.846 79.2209C78.9485 79.2092 77.051 79.2209 75.1535 79.2092C74.8961 79.2092 74.8243 79.2746 74.8283 79.5309C74.845 80.4901 74.845 81.4492 74.8283 82.4083C74.825 82.6516 74.8889 82.7189 75.1377 82.7176C77.0471 82.7065 78.9564 82.7176 80.8658 82.7052C81.1469 82.7052 81.2417 82.7595 81.2318 83.059C81.2068 83.8097 81.216 84.5631 81.2318 85.3138C81.2318 85.5205 81.1699 85.5656 80.9685 85.5656C78.0623 85.5591 75.1557 85.5591 72.2487 85.5656C71.9649 85.5656 71.9643 85.4401 71.9643 85.2334C71.9665 82.7501 71.9662 80.2664 71.9636 77.7822Z" fill="#078776"/>
<path d="M96.7376 83.2769C96.7376 82.6013 96.7376 81.9258 96.7376 81.2496C96.7376 81.09 96.7112 80.9952 96.5282 80.9462C96.1575 80.8468 95.8981 80.5623 95.6065 80.336C95.3385 80.1294 95.0797 79.9051 94.8085 79.7063C94.4694 79.4604 94.2857 79.1243 94.1981 78.7312C93.572 75.9192 92.9538 73.1072 92.3197 70.2991C92.2638 70.0493 92.3132 70.0016 92.5528 70.0048C93.3429 70.0162 94.133 70.0162 94.923 70.0048C95.1206 70.0048 95.2061 70.0539 95.2522 70.2612C95.7697 72.6285 96.3004 74.9932 96.8258 77.3586C96.945 77.8974 97.2959 78.1786 97.8568 78.1786H98.4165C99.0387 78.1786 99.3448 77.938 99.4811 77.3285C100.003 74.9952 100.521 72.6614 101.036 70.3272C101.09 70.0801 101.183 70.0003 101.444 70.0003C102.2 70.0205 102.959 70.0166 103.714 70.0003C103.962 69.9957 104.043 70.0474 103.986 70.3096C103.347 73.1504 102.713 75.9925 102.082 78.8359C102.026 79.0844 101.93 79.3263 101.739 79.4944C101.191 79.979 100.656 80.4995 100.003 80.8285C99.6549 81.0037 99.5772 81.177 99.5832 81.5282C99.6049 82.7707 99.5832 84.0132 99.5976 85.2557C99.5976 85.4971 99.5417 85.569 99.2915 85.5631C98.535 85.5454 97.7772 85.5474 97.0213 85.5631C96.7843 85.5677 96.7297 85.4905 96.7343 85.2682C96.7468 84.6057 96.7382 83.9446 96.7376 83.2769Z" fill="#078776"/>
<path d="M60.6986 77.777C60.6986 75.3037 60.7026 72.8298 60.6934 70.3565C60.6934 70.095 60.75 69.9956 61.0344 70.0034C61.7692 70.023 62.5042 70.023 63.2394 70.0034C63.5185 69.9956 63.5811 70.0832 63.5804 70.3494C63.5719 74.3385 63.5804 78.3276 63.5653 82.3167C63.5653 82.6607 63.6647 82.7222 63.984 82.7196C65.871 82.7045 67.7579 82.7196 69.6462 82.7058C69.9096 82.7058 69.9754 82.7804 69.9701 83.0328C69.9537 83.7953 69.9589 84.5585 69.9701 85.3217C69.9701 85.5002 69.9313 85.5656 69.7364 85.5656C66.807 85.5591 63.8776 85.5591 60.9482 85.5656C60.6552 85.5656 60.7032 85.3995 60.7032 85.2308C60.7002 82.7462 60.6986 80.2616 60.6986 77.777Z" fill="#078776"/>
<path d="M83.9109 77.7836C83.9109 75.3103 83.9155 72.8377 83.9043 70.3651C83.9043 70.082 83.9662 69.9924 84.2631 70.0022C84.9755 70.0264 85.6892 70.0238 86.4016 70.0022C86.686 69.9937 86.7696 70.0617 86.7683 70.3573C86.7571 73.9736 86.7611 77.5907 86.7611 81.2071C86.7611 81.5994 86.7762 81.9918 86.7558 82.3842C86.7426 82.6399 86.8216 82.7164 87.085 82.7111C88.9608 82.7007 90.8379 82.7046 92.7116 82.7066C93.2173 82.7066 93.1514 82.6582 93.1534 83.1382C93.1567 83.8458 93.1468 84.554 93.1587 85.2622C93.1626 85.4787 93.1185 85.5617 92.8756 85.5611C89.9786 85.5524 87.0832 85.5524 84.1894 85.5611C83.9471 85.5611 83.9069 85.4793 83.9076 85.2629C83.9142 82.7709 83.9153 80.2778 83.9109 77.7836Z" fill="#078776"/>
<path d="M58.4711 77.7811C58.4711 76.2567 58.4672 74.7317 58.4711 73.2073C58.4711 72.7737 58.3631 72.3912 58.0484 72.0792L56.4202 70.462C56.2778 70.3176 56.1074 70.2034 55.9193 70.1262C55.7313 70.049 55.5294 70.0104 55.326 70.0127C53.8898 70.0075 52.4534 70.0075 51.0168 70.0127C50.8189 70.0097 50.6224 70.0465 50.4392 70.1209C50.2561 70.1953 50.0899 70.3058 49.9508 70.4456C49.3987 70.991 48.848 71.5377 48.2989 72.0858C48.1535 72.2269 48.0387 72.396 47.9615 72.5828C47.8843 72.7696 47.8463 72.9701 47.8499 73.172C47.8499 76.2543 47.8499 79.3364 47.8499 82.4182C47.846 82.6147 47.8826 82.8099 47.9576 82.9918C48.0326 83.1737 48.1442 83.3384 48.2857 83.4757L49.937 85.1165C50.0784 85.2613 50.2484 85.3756 50.4364 85.4521C50.6244 85.5286 50.8262 85.5657 51.0293 85.5612C52.4545 85.5577 53.881 85.5577 55.3088 85.5612C55.517 85.5649 55.7237 85.5263 55.9163 85.4475C56.1088 85.3688 56.283 85.2517 56.4281 85.1034C56.9166 84.6182 57.3933 84.1225 57.8983 83.6529C58.3151 83.2677 58.4817 82.8165 58.4757 82.2574C58.4593 80.7657 58.4711 79.2734 58.4711 77.7811ZM55.6262 74.5237C55.5913 76.855 55.6091 79.1871 55.617 81.521C55.617 81.7656 55.5334 81.931 55.3832 82.1246C54.9974 82.6216 54.5273 82.7864 53.9051 82.7348C53.2514 82.6805 52.5884 82.7125 51.93 82.7276C51.6798 82.7334 51.5132 82.6399 51.3229 82.4863C50.8502 82.1063 50.679 81.6623 50.7106 81.0476C50.7659 79.9607 50.7264 78.8686 50.7264 77.7778C50.7264 76.5248 50.7317 75.2718 50.7218 74.0188C50.7218 73.7841 50.8021 73.6265 50.9503 73.446C51.3354 72.9719 51.7957 72.8077 52.4053 72.8574C53.0927 72.911 53.788 72.8797 54.478 72.8646C54.7071 72.8594 54.8506 72.9555 55.0238 73.087C55.5156 73.4578 55.6348 73.9221 55.6255 74.5237H55.6262Z" fill="#078776"/>
</g>
<defs>
<clipPath id="clip0_1212_85">
<rect width="143" height="109" fill="white" transform="translate(-2)"/>
</clipPath>
</defs>
</svg>
