<svg width="128" height="97" viewBox="0 0 128 97" fill="none" xmlns="http://www.w3.org/2000/svg">
<g clip-path="url(#clip0_1212_108)">
<path d="M62.9983 0C63.0295 2.20097 63.0808 4.40137 63.0443 6.60292C63.0024 9.12339 62.9347 11.6433 62.7496 14.1579C62.5392 17.0677 62.2357 19.9642 61.5768 22.814C61.3467 23.8029 61.0484 24.7751 60.684 25.7238C60.3487 26.602 59.7128 27.2654 59.0869 27.9312C57.2806 29.8517 55.1938 31.4497 53.0451 32.9692C48.75 36.0076 44.2122 38.662 39.5995 41.1952C39.0891 41.4757 39.0873 41.4757 38.8133 40.9531C37.3989 38.2499 36.397 35.4012 35.9686 32.3908C34.6933 23.4373 37.0977 15.561 43.2999 8.89003C47.1794 4.72086 51.9866 2.03977 57.5629 0.71872C59.0696 0.360064 60.6059 0.1355 62.1532 0.0477212C62.2392 0.0430655 62.33 0.0576141 62.409 0H62.9983Z" fill="#078776"/>
<path d="M65.5899 0C66.115 0.0547043 66.6395 0.108825 67.164 0.165275C69.9999 0.471386 72.7314 1.17789 75.3321 2.33192C82.2415 5.39885 87.196 10.3703 90.1957 17.2464C91.1618 19.4829 91.8088 21.841 92.1181 24.2532C92.9066 30.2164 91.8812 35.8577 89.0418 41.1772C88.961 41.3291 88.9121 41.4234 88.7035 41.3105C83.8739 38.7021 79.1363 35.9465 74.6668 32.7626C72.5393 31.2495 70.5149 29.6142 68.6957 27.731C67.5323 26.5269 66.999 25.0645 66.5959 23.5164C66.0578 21.4499 65.7502 19.3444 65.5221 17.2254C65.2009 14.2446 65.0683 11.2545 64.9917 8.25976C64.9192 5.50593 64.9605 2.75325 65.0035 0H65.5899Z" fill="#078776"/>
<path d="M64.9424 96.9999C64.9424 92.8979 64.944 88.796 64.9471 84.6944C64.9413 84.549 64.9474 84.4035 64.9654 84.2591C65.0526 83.7324 65.4421 83.314 65.9401 83.2115C66.5065 83.0951 66.9762 83.2651 67.3021 83.7353C67.7653 84.4081 68.2085 85.0942 68.6575 85.7751L72.2165 91.1489C72.2696 91.2292 72.3255 91.3089 72.3933 91.4067C72.4847 91.2961 72.4458 91.178 72.4458 91.0732C72.4487 88.5522 72.4522 86.0306 72.4416 83.5078C72.4416 83.2366 72.4947 83.1382 72.7911 83.1493C73.4482 83.1731 74.1071 83.1621 74.7648 83.1533C74.9475 83.1533 75.0194 83.1888 75.0188 83.3902C75.0129 87.4826 75.0107 91.5757 75.0123 95.6696C75.0123 96.2981 74.6787 96.7346 74.0794 96.9336C74.0346 96.9481 73.9804 96.9417 73.958 96.997H73.4865C73.0392 96.9732 72.7681 96.706 72.5353 96.3569C70.9212 93.9604 69.3412 91.5411 67.7287 89.1435C67.6698 89.0579 67.5932 88.9764 67.6203 88.8036C67.6238 91.4038 67.6203 93.9487 67.6203 96.4942C67.6203 96.6688 67.6792 96.8719 67.4771 96.9947L64.9424 96.9999Z" fill="#195D7E"/>
<path d="M85.2723 97C85.2682 96.9226 85.2617 96.8452 85.2617 96.7673C85.2617 92.6959 85.2617 88.6245 85.2617 84.5531C85.2617 83.7843 85.7008 83.2576 86.4139 83.1861C86.9519 83.1325 87.3627 83.3606 87.6562 83.8047C88.1799 84.5996 88.7054 85.3938 89.2326 86.1872C90.3441 87.8641 91.4558 89.5407 92.5677 91.2171C92.6136 91.2869 92.662 91.355 92.7551 91.49V91.11C92.7551 88.5605 92.7586 86.0115 92.7498 83.4619C92.7498 83.2256 92.8022 83.1482 93.0527 83.1552C93.7198 83.1738 94.3881 83.1663 95.0564 83.1581C95.2368 83.1581 95.3151 83.1913 95.3145 83.3956C95.3079 87.496 95.3057 91.5965 95.3081 95.697C95.3081 96.4175 94.8761 96.7969 94.2296 96.9995H93.7581C93.3297 96.9541 93.0509 96.6887 92.8323 96.3593C91.8481 94.8757 90.8623 93.3934 89.875 91.9126C89.215 90.9193 88.5533 89.9234 87.8901 88.9248C87.8984 89.899 87.8901 90.8586 87.8937 91.8177C87.8937 93.3971 87.8937 94.9768 87.8937 96.5566C87.8937 96.7085 87.9255 96.8697 87.8076 97.0012L85.2723 97Z" fill="#195D7E"/>
<path d="M99.5911 96.9999C99.2056 96.8835 98.9145 96.6321 98.6428 96.3475C98.3482 96.0373 98.0376 95.7388 97.7282 95.4408C97.5954 95.3179 97.4902 95.1689 97.4191 95.0034C97.3481 94.838 97.3129 94.6597 97.3156 94.48C97.3156 91.5516 97.3156 88.6224 97.3156 85.6924C97.3123 85.5075 97.3481 85.324 97.4209 85.1536C97.4937 84.9832 97.6018 84.8298 97.7382 84.7031C98.1248 84.3306 98.5043 83.9523 98.8839 83.5723C99.0169 83.436 99.1773 83.3287 99.3548 83.2571C99.5323 83.1856 99.723 83.1514 99.9146 83.1568C101.997 83.1568 104.079 83.1556 106.162 83.1533C106.361 83.1533 106.434 83.1952 106.43 83.4076C106.417 84.0854 106.417 84.7644 106.43 85.4445C106.434 85.6534 106.367 85.7017 106.164 85.7011C104.328 85.6936 102.492 85.6965 100.655 85.6971C100.555 85.6954 100.455 85.7134 100.362 85.75C100.269 85.7867 100.184 85.8413 100.112 85.9107C100.04 85.98 99.9834 86.0628 99.9443 86.1541C99.9052 86.2454 99.8849 86.3434 99.8845 86.4426C99.8845 88.8662 99.8845 91.2911 99.8845 93.7171C99.8879 93.9119 99.9667 94.098 100.105 94.2371C100.243 94.3763 100.43 94.4578 100.627 94.4649C101.6 94.4649 102.572 94.4649 103.544 94.4649C103.897 94.4649 104.251 94.1157 104.251 93.7764C104.251 93.049 104.243 92.3215 104.257 91.5947C104.26 91.3817 104.187 91.3398 103.989 91.3432C103.351 91.3555 102.713 91.3433 102.075 91.3508C101.898 91.3508 101.812 91.3275 101.816 91.118C101.829 90.4197 101.825 89.7213 101.816 89.023C101.816 88.8624 101.857 88.8042 102.03 88.8047C103.551 88.8106 105.073 88.8106 106.596 88.8047C106.787 88.8047 106.822 88.8792 106.821 89.0457C106.816 90.8591 106.821 92.6724 106.816 94.4853C106.82 94.6704 106.784 94.8543 106.711 95.0248C106.638 95.1953 106.529 95.3486 106.392 95.4746C106.08 95.7691 105.768 96.0653 105.468 96.372C105.2 96.6467 104.912 96.8835 104.537 96.9993L99.5911 96.9999Z" fill="#195D7E"/>
<path d="M42.7857 96.9998C42.7815 96.8933 42.7733 96.7868 42.7733 96.6803C42.7733 92.2881 42.7707 87.8956 42.7656 83.503C42.7656 83.2219 42.8369 83.1538 43.1192 83.1538C45.6628 83.1654 48.2061 83.1654 50.7493 83.1538C50.9744 83.1538 51.0522 83.2021 51.044 83.4384C51.0269 84.1071 51.0298 84.7769 51.044 85.4456C51.0481 85.6533 50.9803 85.7022 50.7782 85.7011C49.0597 85.6935 47.3412 85.7011 45.6227 85.6912C45.3817 85.6912 45.308 85.7441 45.3133 85.9914C45.3302 86.8248 45.3302 87.659 45.3133 88.4939C45.3086 88.7435 45.364 88.8192 45.6315 88.8169C47.33 88.8035 49.029 88.8169 50.7275 88.8029C50.9992 88.8029 51.051 88.8826 51.0446 89.1288C51.0275 89.7783 51.0292 90.4283 51.0446 91.0778C51.0499 91.2943 50.9921 91.3536 50.7688 91.3525C49.0703 91.3426 47.3713 91.3565 45.6728 91.3385C45.3616 91.335 45.3068 91.4281 45.3133 91.708C45.3322 92.5414 45.3275 93.3759 45.3133 94.2105C45.3133 94.4182 45.3781 94.4665 45.5791 94.466C47.2976 94.459 49.0161 94.466 50.734 94.4561C50.9791 94.4561 51.0493 94.5143 51.0434 94.7593C51.0257 95.5059 51.034 96.2526 51.0322 96.9992L42.7857 96.9998Z" fill="#195D7E"/>
<path d="M23.4574 96.9999C23.0708 96.8835 22.7803 96.6326 22.5086 96.3481C22.2139 96.0373 21.9033 95.7388 21.5934 95.4414C21.4606 95.3186 21.3553 95.1697 21.2843 95.0043C21.2132 94.839 21.178 94.6607 21.1808 94.4811C21.1808 91.5426 21.1808 88.6041 21.1808 85.6656C21.1793 85.4907 21.2143 85.3174 21.2835 85.1564C21.3528 84.9954 21.4548 84.8502 21.5833 84.7298C21.9817 84.3418 22.3776 83.951 22.7708 83.5572C22.8936 83.4309 23.0413 83.3308 23.2048 83.2632C23.3683 83.1955 23.5442 83.1617 23.7214 83.1638C25.1944 83.1603 26.6677 83.1603 28.1414 83.1638C28.3187 83.1614 28.4945 83.1946 28.6583 83.2615C28.8222 83.3283 28.9705 83.4273 29.0944 83.5525C29.478 83.9279 29.8605 84.3038 30.2518 84.6722C30.39 84.7967 30.5002 84.9485 30.5752 85.1177C30.6502 85.2869 30.6884 85.4698 30.6873 85.6545C30.6915 86.4012 30.6873 87.1484 30.6921 87.8951C30.6921 88.0476 30.6626 88.1244 30.4828 88.1221C29.7662 88.1139 29.0494 88.1139 28.3324 88.1221C28.1609 88.1221 28.1161 88.0639 28.119 87.9027C28.1273 87.3888 28.1237 86.8743 28.119 86.3605C28.119 86.0549 27.756 85.7017 27.4454 85.7011C26.4436 85.7011 25.4417 85.7011 24.4398 85.7011C24.1157 85.7011 23.7462 86.0613 23.7462 86.3785C23.7462 88.8514 23.7462 91.3242 23.7462 93.7968C23.7462 94.0877 24.1257 94.4643 24.4233 94.4649C25.4354 94.4672 26.4471 94.4672 27.4584 94.4649C27.7454 94.4649 28.1167 94.0982 28.1184 93.8154C28.1214 93.3009 28.1261 92.7871 28.1155 92.2732C28.112 92.0986 28.1526 92.0357 28.3412 92.0404C29.0484 92.0505 29.7556 92.0505 30.4628 92.0404C30.6508 92.0375 30.6926 92.1062 30.6909 92.2767C30.6826 93.0134 30.6909 93.7508 30.6856 94.4881C30.6885 94.6778 30.6505 94.8659 30.5742 95.04C30.4979 95.214 30.385 95.3701 30.243 95.4978C29.9359 95.7836 29.6324 96.0745 29.3395 96.3743C29.0714 96.6484 28.7838 96.887 28.409 97.0028L23.4574 96.9999Z" fill="#195D7E"/>
<path d="M77.0219 96.9998C77.0219 96.2241 77.0219 95.4489 77.0137 94.672C77.0137 94.5055 77.0661 94.4549 77.2317 94.4584C77.6731 94.4677 78.1157 94.4508 78.5565 94.466C78.7758 94.4729 78.8559 94.4252 78.8553 94.1849C78.8459 91.4415 78.8459 88.6982 78.8553 85.9548C78.8553 85.7569 78.8135 85.6848 78.5996 85.6929C78.1487 85.7098 77.6967 85.6929 77.2441 85.7022C77.0602 85.7069 77.0119 85.644 77.0143 85.4694C77.0231 84.7711 77.0243 84.0727 77.0143 83.3744C77.0113 83.1835 77.085 83.1538 77.2553 83.1538C79.1805 83.1592 81.1056 83.1592 83.0308 83.1538C83.2076 83.1538 83.2665 83.1998 83.2665 83.3819C83.2563 84.0803 83.2563 84.7786 83.2665 85.477C83.2665 85.665 83.1964 85.7028 83.0249 85.6993C82.564 85.69 82.102 85.7045 81.6411 85.6923C81.4561 85.6877 81.4095 85.7505 81.4101 85.9251C81.4148 88.6883 81.4148 91.4512 81.4101 94.214C81.4101 94.399 81.462 94.4695 81.66 94.4636C82.1014 94.4502 82.544 94.47 82.9848 94.4549C83.2011 94.4479 83.2712 94.5061 83.2683 94.7296C83.2565 95.4861 83.2683 96.2427 83.273 96.9992L77.0219 96.9998Z" fill="#195D7E"/>
<path d="M32.7095 97.0002C32.703 96.8838 32.6907 96.7674 32.6907 96.651C32.6907 92.2708 32.6883 87.8904 32.6836 83.5098C32.6836 83.2403 32.7331 83.1396 33.0313 83.1519C33.6684 83.1769 34.3072 83.1716 34.9449 83.1519C35.1936 83.1449 35.2495 83.2194 35.249 83.4568C35.2413 87.0039 35.249 90.5509 35.2372 94.098C35.2372 94.3779 35.2861 94.471 35.5967 94.4681C37.2845 94.45 38.9724 94.4646 40.6602 94.4535C40.9071 94.4535 40.9726 94.5175 40.9672 94.7579C40.9507 95.504 40.9602 96.2506 40.9596 96.9967L32.7095 97.0002Z" fill="#195D7E"/>
<path d="M63.9853 56.0496C57.004 55.9646 50.8373 53.7218 45.5215 49.236C43.5154 47.5342 41.7608 45.5631 40.3088 43.3803C40.2075 43.229 40.1662 43.1475 40.3678 43.0311C45.0535 40.243 49.8165 37.5974 54.8099 35.376C56.9451 34.4263 59.1168 33.572 61.3869 32.9795C62.1341 32.7786 62.8955 32.6331 63.6647 32.5442C64.3984 32.4662 65.1097 32.6397 65.8175 32.7927C68.2208 33.3124 70.498 34.1976 72.7398 35.1753C77.4438 37.2267 81.9334 39.6831 86.3534 42.2752C86.7659 42.5173 87.1696 42.7768 87.591 43.002C87.8161 43.1219 87.812 43.215 87.6794 43.4094C84.9932 47.4168 81.5167 50.5675 77.2175 52.8255C74.3645 54.3252 71.2668 55.318 68.0658 55.7586C66.714 55.9478 65.3506 56.0451 63.9853 56.0496Z" fill="#195D7E"/>
<path d="M4.73627 80.3583C4.02907 80.3583 3.32187 80.3513 2.61467 80.3583C2.4183 80.3655 2.22261 80.3315 2.04055 80.2584C1.85849 80.1854 1.69421 80.075 1.55859 79.9346C1.17965 79.5552 0.796581 79.1781 0.413515 78.8027C0.278567 78.6754 0.172134 78.5216 0.10108 78.3512C0.0300248 78.1808 -0.00407447 77.9976 0.000982284 77.8134C0.00746494 77.0958 0.00923293 76.3782 0.000982284 75.6601C0.000982284 75.4675 0.0339866 75.3889 0.253218 75.3936C0.93979 75.4081 1.62754 75.407 2.31588 75.3936C2.52509 75.3901 2.58344 75.4564 2.57813 75.6566C2.56517 76.1507 2.57165 76.6459 2.5746 77.14C2.5746 77.4485 2.95707 77.8267 3.26942 77.8273C4.27089 77.8297 5.27276 77.8297 6.27501 77.8273C6.5744 77.8273 6.95098 77.4543 6.95334 77.1587C6.95687 76.7903 6.95334 76.4219 6.95334 76.0529C6.95334 75.4663 6.73823 75.194 6.16068 75.0636C4.79697 74.7493 3.43326 74.4364 2.06954 74.1249C1.71026 74.0517 1.38948 73.8537 1.1655 73.5668C0.878498 73.1978 0.586781 72.8329 0.294472 72.4681C0.0964737 72.224 -0.00788534 71.9188 -0.000193935 71.6062C0.00609228 70.7627 0.00609228 69.9193 -0.000193935 69.0758C-0.00645076 68.8963 0.0248627 68.7174 0.0917885 68.5504C0.158714 68.3834 0.259812 68.2318 0.388764 68.1051C0.78892 67.7047 1.1932 67.3084 1.59572 66.9115C1.7199 66.7864 1.86849 66.6875 2.03249 66.6208C2.19649 66.5541 2.37249 66.5209 2.54984 66.5233C4.02278 66.5202 5.49611 66.5202 6.96984 66.5233C7.14697 66.522 7.32254 66.5561 7.486 66.6235C7.64946 66.6909 7.79742 66.7903 7.92102 66.9156C8.31823 67.3035 8.71681 67.6915 9.11677 68.0795C9.24151 68.1965 9.34017 68.338 9.40643 68.4948C9.47269 68.6516 9.50511 68.8204 9.50161 68.9903C9.50161 69.7468 9.49395 70.5034 9.5075 71.2599C9.51104 71.4659 9.42971 71.4997 9.24996 71.4973C8.5628 71.4904 7.87505 71.4874 7.1873 71.4973C6.98398 71.5008 6.94273 71.4258 6.94685 71.2442C6.95687 70.7402 6.95216 70.2362 6.94685 69.7311C6.94685 69.4285 6.57734 69.0636 6.27383 69.063C5.26254 69.063 4.25125 69.063 3.23995 69.063C2.94057 69.063 2.57165 69.4349 2.56929 69.7352C2.56929 70.0937 2.56929 70.4527 2.56929 70.8112C2.56929 71.4234 2.77674 71.6737 3.37668 71.8116C4.73214 72.1212 6.08407 72.4378 7.43777 72.7497C7.80532 72.8285 8.13199 73.035 8.3583 73.3317C8.63882 73.6931 8.92642 74.0492 9.21107 74.4071C9.39952 74.6337 9.50187 74.9182 9.50043 75.2114C9.4965 76.1038 9.4965 76.9961 9.50043 77.8884C9.50447 78.0583 9.4726 78.2271 9.40684 78.3841C9.34109 78.5412 9.2429 78.6829 9.11854 78.8004C8.71308 79.1955 8.3088 79.5918 7.90098 79.9841C7.77537 80.1073 7.62571 80.2041 7.4611 80.2685C7.29648 80.3329 7.12033 80.3637 6.94332 80.3589C6.2096 80.3548 5.47293 80.3577 4.73627 80.3583Z" fill="#078776"/>
<path d="M33.086 73.4371C33.086 71.2367 33.0907 69.0357 33.0801 66.8353C33.0801 66.5764 33.1508 66.5135 33.4089 66.5147C35.9627 66.5248 38.5153 66.5248 41.0667 66.5147C41.3072 66.5147 41.3844 66.5688 41.3779 66.815C41.3602 67.464 41.3602 68.1133 41.3779 68.7628C41.3844 69.0014 41.3231 69.0706 41.0744 69.0689C39.3759 69.0578 37.6775 69.0689 35.979 69.0561C35.6979 69.0561 35.6449 69.1405 35.6496 69.3942C35.6653 70.209 35.6653 71.0237 35.6496 71.8384C35.6449 72.0928 35.6997 72.1801 35.9802 72.1777C37.6686 72.1638 39.3576 72.1777 41.0484 72.1638C41.329 72.1638 41.3879 72.247 41.3802 72.5036C41.3626 73.1333 41.3578 73.7641 41.3802 74.3932C41.3914 74.6743 41.2912 74.7191 41.0367 74.7174C39.3382 74.7069 37.6397 74.7174 35.9413 74.7069C35.7109 74.7069 35.6466 74.7651 35.6502 74.9932C35.6651 75.8468 35.6651 76.7003 35.6502 77.5539C35.6472 77.7704 35.7044 77.8303 35.9271 77.8291C37.6362 77.8192 39.3453 77.8291 41.0543 77.8181C41.306 77.8181 41.3908 77.8664 41.382 78.1329C41.3596 78.801 41.3679 79.4714 41.382 80.1395C41.382 80.3234 41.3266 80.3636 41.1463 80.3636C38.545 80.3578 35.9433 80.3578 33.3412 80.3636C33.0871 80.3636 33.0866 80.2518 33.0866 80.0679C33.0885 77.858 33.0883 75.6478 33.086 73.4371Z" fill="#078776"/>
<path d="M119.703 73.4442C119.703 71.2426 119.707 69.0416 119.697 66.8407C119.697 66.5887 119.756 66.513 120.021 66.5142C122.584 66.5246 125.147 66.5246 127.71 66.5142C127.946 66.5142 128.004 66.5799 128 66.8052C127.985 67.474 127.985 68.1431 128 68.8123C128.004 69.0213 127.937 69.0678 127.735 69.0672C126.016 69.0591 124.298 69.0672 122.579 69.0568C122.337 69.0568 122.266 69.1109 122.27 69.357C122.287 70.2102 122.283 71.0634 122.27 71.9177C122.27 72.1237 122.329 72.1755 122.534 72.1743C124.252 72.1667 125.971 72.1743 127.689 72.1644C127.934 72.1644 128.005 72.2226 127.999 72.4676C127.982 73.1264 127.983 73.7863 127.999 74.4463C128.003 74.6663 127.94 74.7192 127.721 74.7181C126.003 74.7088 124.285 74.7181 122.566 74.7082C122.346 74.7082 122.264 74.7477 122.271 74.9887C122.288 75.8319 122.292 76.6764 122.271 77.519C122.264 77.7943 122.365 77.8292 122.605 77.8281C124.275 77.8187 125.944 77.8217 127.614 77.824C128.067 77.824 127.994 77.7745 127.997 78.2156C128.001 78.8558 127.992 79.496 128.002 80.1361C128.002 80.3136 127.957 80.3642 127.773 80.3637C125.162 80.3578 122.549 80.3578 119.935 80.3637C119.688 80.3637 119.703 80.2415 119.703 80.0762C119.704 77.8655 119.704 75.6548 119.703 73.4442Z" fill="#078776"/>
<path d="M108.202 73.4351C108.202 72.0005 108.206 70.5654 108.202 69.1286C108.195 68.9251 108.232 68.7224 108.311 68.5343C108.39 68.3461 108.509 68.1769 108.66 68.038C109.042 67.6754 109.414 67.3024 109.785 66.9287C109.91 66.7983 110.061 66.6948 110.229 66.6246C110.397 66.5545 110.577 66.5194 110.759 66.5214C112.232 66.5183 113.705 66.5183 115.179 66.5214C115.351 66.5191 115.522 66.5511 115.682 66.6154C115.841 66.6796 115.986 66.7749 116.108 66.8956C116.521 67.2964 116.934 67.6981 117.345 68.1008C117.556 68.3057 117.694 68.553 117.699 68.8451C117.714 69.6692 117.713 70.4933 117.723 71.3167C117.723 71.4651 117.649 71.4913 117.522 71.4913C116.795 71.4884 116.069 71.4861 115.341 71.4913C115.176 71.4913 115.149 71.4226 115.151 71.2818C115.156 70.758 115.155 70.2343 115.151 69.7105C115.151 69.423 114.785 69.0593 114.496 69.0587C113.486 69.0587 112.475 69.0587 111.463 69.0587C111.154 69.0587 110.781 69.4166 110.781 69.7169C110.781 72.1999 110.781 74.6818 110.781 77.1625C110.781 77.4355 111.162 77.8236 111.437 77.8242C112.458 77.8277 113.48 77.8277 114.501 77.8242C114.782 77.8242 115.149 77.4436 115.149 77.1614C115.149 76.6481 115.158 76.1336 115.146 75.6203C115.142 75.4399 115.196 75.3875 115.377 75.3922C116.084 75.4015 116.791 75.3998 117.498 75.3922C117.659 75.3922 117.724 75.4312 117.722 75.6023C117.713 76.3484 117.715 77.095 117.714 77.8417C117.717 78.036 117.677 78.2285 117.598 78.4064C117.519 78.5843 117.402 78.7434 117.255 78.8729C116.877 79.225 116.508 79.5881 116.139 79.9495C116.008 80.0814 115.852 80.1854 115.679 80.2548C115.506 80.3243 115.32 80.3579 115.133 80.3534C113.68 80.3488 112.226 80.3488 110.772 80.3534C110.591 80.3573 110.41 80.3243 110.241 80.2566C110.073 80.1888 109.92 80.0877 109.793 79.9594C109.395 79.5715 108.999 79.1809 108.605 78.7879C108.473 78.6581 108.368 78.5028 108.299 78.3315C108.229 78.1602 108.196 77.9766 108.202 77.7922C108.204 76.342 108.204 74.8896 108.202 73.4351Z" fill="#078776"/>
<path d="M89.8776 73.4378C89.8776 71.2374 89.8817 69.0364 89.8711 66.8354C89.8711 66.5793 89.9347 66.513 90.1964 66.5142C92.7502 66.5247 95.3028 66.5247 97.8542 66.5142C98.1141 66.5142 98.1872 66.5759 98.1795 66.8348C98.1595 67.493 98.1642 68.153 98.1795 68.8135C98.1836 69.0218 98.1147 69.0701 97.9125 69.069C96.1946 69.062 94.4761 69.069 92.7582 69.0591C92.516 69.0591 92.4441 69.1173 92.4488 69.36C92.4647 70.2125 92.4618 71.0663 92.4488 71.9206C92.4488 72.1278 92.5125 72.1778 92.7146 72.1766C94.4325 72.1697 96.151 72.1766 97.8689 72.1673C98.1129 72.1673 98.1848 72.2296 98.1789 72.4717C98.1624 73.1313 98.1624 73.7908 98.1789 74.4504C98.1848 74.6762 98.1105 74.721 97.8972 74.7198C96.1787 74.7117 94.4608 74.7198 92.7423 74.7105C92.5166 74.7105 92.4477 74.76 92.4477 74.9945C92.4583 76.6822 92.4477 78.3699 92.4606 80.0576C92.4606 80.3258 92.3805 80.3759 92.1312 80.3695C91.4739 80.3528 90.8162 80.3528 90.1581 80.3695C89.9135 80.3765 89.8723 80.2927 89.8729 80.0744C89.8805 77.8589 89.8776 75.648 89.8776 73.4378Z" fill="#078776"/>
<path d="M79.2024 73.4624C79.2024 71.2509 79.2077 69.0395 79.1953 66.828C79.1953 66.5632 79.2696 66.512 79.5224 66.5132C82.0762 66.5225 84.6299 66.5225 87.1837 66.5132C87.4253 66.5132 87.5049 66.5714 87.4984 66.8181C87.4819 67.4676 87.4819 68.1173 87.4984 68.7671C87.5055 69.0191 87.4153 69.068 87.1802 69.0668C85.4811 69.0575 83.7821 69.0668 82.083 69.0558C81.8296 69.0558 81.7477 69.107 81.7536 69.3718C81.7732 70.1951 81.7732 71.0193 81.7536 71.8445C81.7465 72.1245 81.8432 72.1751 82.1019 72.1734C83.7909 72.1629 85.4805 72.1733 87.1702 72.1623C87.4283 72.1623 87.5078 72.224 87.4996 72.4847C87.4796 73.1144 87.4819 73.7458 87.4996 74.3755C87.5067 74.6298 87.4507 74.7194 87.1678 74.7171C85.4788 74.702 83.7892 74.7171 82.0995 74.7037C81.8402 74.7037 81.7524 74.7543 81.7548 75.0319C81.7695 76.6998 81.7577 78.3683 81.7672 80.0368C81.7672 80.2771 81.7289 80.3743 81.4519 80.3639C80.8036 80.3406 80.1553 80.3452 79.5071 80.3639C79.2678 80.3703 79.1953 80.3167 79.1965 80.0671C79.2071 77.8655 79.2024 75.6616 79.2024 73.4624Z" fill="#078776"/>
<path d="M55.2612 78.3264C55.2612 77.7253 55.2612 77.1241 55.2612 76.5224C55.2612 76.3804 55.2377 76.296 55.0738 76.2523C54.742 76.1639 54.5098 75.9107 54.2488 75.7094C54.0089 75.5255 53.7773 75.3258 53.5345 75.1489C53.231 74.9301 53.0666 74.631 52.9882 74.2812C52.4277 71.7788 51.8743 69.2764 51.3068 66.7774C51.2567 66.5551 51.3009 66.5126 51.5154 66.5155C52.2226 66.5256 52.9298 66.5256 53.637 66.5155C53.8138 66.5155 53.8904 66.5592 53.9317 66.7437C54.3949 68.8504 54.8699 70.9547 55.3402 73.0597C55.4469 73.5392 55.761 73.7895 56.2631 73.7895H56.764C57.3209 73.7895 57.595 73.5753 57.717 73.0329C58.1837 70.9565 58.6475 68.8797 59.1084 66.8025C59.1567 66.5825 59.2404 66.5115 59.4744 66.5115C60.1509 66.5295 60.8298 66.526 61.5058 66.5115C61.728 66.5074 61.8005 66.5534 61.7498 66.7867C61.1777 69.3148 60.6094 71.844 60.0448 74.3743C59.9953 74.5955 59.9087 74.8108 59.7384 74.9604C59.2475 75.3916 58.7689 75.8548 58.1843 76.1476C57.8726 76.3035 57.803 76.4578 57.8083 76.7703C57.8278 77.876 57.8083 78.9817 57.8213 80.0874C57.8213 80.3022 57.7712 80.3662 57.5472 80.361C56.8701 80.3453 56.1918 80.347 55.5152 80.361C55.3031 80.365 55.2542 80.2964 55.2583 80.0985C55.2695 79.509 55.2618 78.9206 55.2612 78.3264Z" fill="#078776"/>
<path d="M102.008 73.4184C102.008 72.0514 102.003 70.6832 102.013 69.3174C102.013 69.1148 101.963 69.0514 101.753 69.059C101.303 69.0747 100.85 69.0555 100.398 69.0677C100.213 69.0729 100.166 69.0095 100.168 68.8349C100.177 68.1366 100.177 67.4382 100.168 66.7399C100.165 66.5554 100.232 66.5146 100.404 66.5146C102.329 66.5201 104.254 66.5201 106.179 66.5146C106.353 66.5146 106.423 66.5571 106.42 66.741C106.411 67.4487 106.413 68.1569 106.42 68.8646C106.42 69.0182 106.367 69.0654 106.215 69.0631C105.754 69.0561 105.292 69.0695 104.831 69.0567C104.632 69.0514 104.561 69.0991 104.562 69.3104C104.568 72.0541 104.568 74.7979 104.562 77.5416C104.562 77.7517 104.61 77.8326 104.839 77.8239C105.279 77.8064 105.723 77.8239 106.164 77.8163C106.344 77.8128 106.426 77.8518 106.422 78.0567C106.409 78.7445 106.413 79.433 106.422 80.1215C106.422 80.2873 106.394 80.3601 106.199 80.3595C104.265 80.3517 102.331 80.3517 100.397 80.3595C100.245 80.3595 100.167 80.3385 100.17 80.1587C100.18 79.451 100.18 78.7434 100.17 78.0357C100.167 77.8396 100.254 77.8152 100.417 77.8181C100.868 77.8256 101.32 77.8111 101.772 77.825C101.973 77.8314 102.015 77.7593 102.014 77.5765C102.005 76.1909 102.008 74.8047 102.008 73.4184Z" fill="#078776"/>
<path d="M23.0018 73.4323C23.0018 71.2314 23.0053 69.0298 22.9971 66.8288C22.9971 66.5961 23.0478 66.5076 23.3023 66.5146C23.96 66.532 24.6179 66.532 25.276 66.5146C25.5259 66.5076 25.5819 66.5856 25.5813 66.8224C25.5736 70.3724 25.5813 73.9224 25.5677 77.4723C25.5677 77.7784 25.6567 77.8331 25.9426 77.8308C27.6316 77.8174 29.3206 77.8308 31.0108 77.8186C31.2465 77.8186 31.3055 77.8849 31.3008 78.1096C31.286 78.7881 31.2907 79.4673 31.3008 80.1464C31.3008 80.3053 31.266 80.3635 31.0915 80.3635C28.4694 80.3577 25.8473 80.3577 23.2251 80.3635C22.9629 80.3635 23.0059 80.2157 23.0059 80.0655C23.0032 77.8545 23.0018 75.6434 23.0018 73.4323Z" fill="#078776"/>
<path d="M43.7793 73.4381C43.7793 71.2371 43.7835 69.0367 43.7734 66.8363C43.7734 66.5843 43.8288 66.5046 44.0946 66.5133C44.7323 66.5349 45.3711 66.5325 46.0088 66.5133C46.2634 66.5058 46.3382 66.5663 46.337 66.8293C46.327 70.0476 46.3306 73.2664 46.3306 76.4846C46.3306 76.8338 46.3441 77.183 46.3258 77.5322C46.314 77.7597 46.3848 77.8278 46.6205 77.8231C48.2995 77.8138 49.9797 77.8173 51.6569 77.8191C52.1095 77.8191 52.0506 77.776 52.0524 78.2032C52.0553 78.8328 52.0465 79.4631 52.0571 80.0934C52.0606 80.286 52.0211 80.3599 51.8037 80.3593C49.2106 80.3516 46.6189 80.3516 44.0286 80.3593C43.8117 80.3593 43.7758 80.2866 43.7764 80.094C43.7823 77.8763 43.7833 75.6577 43.7793 73.4381Z" fill="#078776"/>
<path d="M62.8038 94.5556C62.3706 91.4892 61.915 88.4258 61.4748 85.3606C61.4353 85.0212 61.2668 84.7092 61.0033 84.4877C60.6242 84.1641 60.246 83.8409 59.8689 83.5181C59.6111 83.2891 59.2763 83.1627 58.9295 83.1637C58.3113 83.1637 57.6919 83.1637 57.0749 83.1637C56.7478 83.1591 56.4307 83.2746 56.185 83.4879C55.7936 83.8254 55.3953 84.1554 54.998 84.4865C54.759 84.6769 54.6026 84.9502 54.5608 85.2506C54.3893 86.4279 54.2125 87.6052 54.041 88.7825C53.7742 90.6114 53.5088 92.4404 53.2448 94.2693C53.1139 95.1789 52.9896 96.0896 52.8623 96.9998H55.3964C55.5874 96.8834 55.5638 96.6821 55.5921 96.5075C55.71 95.7626 55.8184 95.0153 55.928 94.2693C55.9799 93.9201 56.0064 93.8962 56.3529 93.8951C57.4597 93.8916 58.5665 93.8916 59.6732 93.8951C60.0015 93.8951 60.0304 93.9271 60.0822 94.2553C60.2083 95.0479 60.3056 95.8452 60.4211 96.6413C60.4405 96.7775 60.4606 96.9108 60.582 97.0016H63.1161C63.0801 96.1763 62.9187 95.3686 62.8038 94.5556ZM59.3208 91.2437H57.9954C57.4945 91.2437 56.9935 91.2349 56.4932 91.2477C56.2981 91.253 56.2657 91.1895 56.2916 91.0149C56.5274 89.444 56.7578 87.8727 56.9829 86.3011C57.0189 86.0566 57.3954 85.7115 57.6453 85.7028C57.8121 85.6976 57.9795 85.7028 58.1463 85.7028C58.6973 85.7028 58.9754 85.9612 59.0503 86.5001C59.2518 87.9484 59.4601 89.3957 59.675 90.8421C59.7345 91.2448 59.7433 91.2431 59.3208 91.2437Z" fill="#195D7E"/>
<path d="M21.0083 73.4356C21.0083 72.0791 21.0048 70.722 21.0083 69.3654C21.0083 68.9796 20.9117 68.6391 20.63 68.3615L19.1726 66.9223C19.0451 66.7939 18.8926 66.6922 18.7242 66.6235C18.5559 66.5548 18.3752 66.5205 18.1931 66.5225C16.9076 66.5179 15.6218 66.5179 14.3359 66.5225C14.1588 66.5199 13.9829 66.5526 13.819 66.6188C13.655 66.6851 13.5063 66.7833 13.3818 66.9078C12.8875 67.3931 12.3947 67.8797 11.9032 68.3674C11.773 68.493 11.6703 68.6435 11.6011 68.8097C11.532 68.9759 11.498 69.1543 11.5012 69.334C11.5012 72.077 11.5012 74.8197 11.5012 77.5623C11.4977 77.7372 11.5305 77.9109 11.5976 78.0727C11.6647 78.2346 11.7647 78.3811 11.8914 78.5034L13.3694 79.9635C13.496 80.0924 13.6482 80.1941 13.8164 80.2622C13.9847 80.3303 14.1653 80.3633 14.3471 80.3592C15.6228 80.3561 16.8997 80.3561 18.1778 80.3592C18.3641 80.3626 18.5492 80.3282 18.7215 80.2581C18.8938 80.188 19.0497 80.0838 19.1796 79.9519C19.6169 79.52 20.0436 79.0789 20.4956 78.6611C20.8687 78.3183 21.0178 77.9167 21.0125 77.4192C20.9977 76.0917 21.0083 74.7637 21.0083 73.4356ZM18.4618 70.5369C18.4306 72.6116 18.4465 74.6869 18.4536 76.7639C18.4536 76.9815 18.3787 77.1288 18.2444 77.301C17.899 77.7433 17.4782 77.89 16.9213 77.844C16.3361 77.7957 15.7427 77.8242 15.1533 77.8376C14.9294 77.8428 14.7803 77.7596 14.61 77.6228C14.1868 77.2847 14.0336 76.8896 14.0619 76.3425C14.1114 75.3753 14.076 74.4034 14.076 73.4327C14.076 72.3177 14.0807 71.2027 14.0719 70.0876C14.0719 69.8787 14.1438 69.7384 14.2764 69.5778C14.6212 69.1559 15.0331 69.0098 15.5788 69.0541C16.1941 69.1018 16.8164 69.0738 17.434 69.0605C17.6391 69.0558 17.7676 69.1414 17.9226 69.2583C18.3628 69.5883 18.4695 70.0015 18.4612 70.5369H18.4618Z" fill="#078776"/>
<path d="M77.2005 69.3056C77.2052 69.1263 77.1719 68.9481 77.1029 68.7823C77.0339 68.6164 76.9307 68.4666 76.7998 68.3424C76.3255 67.8768 75.8541 67.4113 75.3854 66.9457C75.2529 66.8089 75.093 66.7007 74.916 66.628C74.739 66.5552 74.5487 66.5196 74.357 66.5232C73.0911 66.5232 71.825 66.5232 70.5587 66.5232C70.3671 66.5202 70.1769 66.5567 70.0004 66.6304C69.8238 66.704 69.6647 66.8132 69.5333 66.9509C69.0801 67.4078 68.6234 67.8617 68.1584 68.3069C68.0077 68.4454 67.8889 68.6142 67.81 68.802C67.7311 68.9897 67.6939 69.192 67.7011 69.3952C67.7128 70.7424 67.7052 72.0897 67.7058 73.4369C67.7058 74.8033 67.7105 76.1721 67.7028 77.5362C67.6974 77.7251 67.7326 77.9131 67.806 78.0876C67.8795 78.2621 67.9895 78.4193 68.1289 78.5488C68.6116 79.0179 69.0883 79.4922 69.5663 79.9659C69.6928 80.0949 69.845 80.1966 70.0133 80.2647C70.1815 80.3328 70.3622 80.3658 70.544 80.3616C71.8099 80.3582 73.076 80.3582 74.3422 80.3616C74.5336 80.3674 74.7242 80.3342 74.902 80.2642C75.0798 80.1941 75.2412 80.0886 75.3759 79.9543C75.8556 79.4821 76.3344 79.0094 76.8121 78.536C76.9389 78.4141 77.0389 78.2678 77.1059 78.1061C77.1729 77.9444 77.2055 77.7708 77.2017 77.5962C77.1985 74.8322 77.1981 72.0687 77.2005 69.3056ZM74.6593 70.5544C74.6257 72.6088 74.6422 74.6643 74.6511 76.7192C74.6511 76.9694 74.5644 77.1399 74.4059 77.3325C74.0812 77.7277 73.7087 77.8831 73.1877 77.8423C72.5636 77.794 71.9325 77.8231 71.3019 77.8354C71.0974 77.8394 70.9677 77.7533 70.8127 77.6357C70.3513 77.2866 70.2104 76.853 70.2399 76.2821C70.2888 75.3347 70.2535 74.3832 70.2535 73.4305C70.2535 72.316 70.2588 71.201 70.2487 70.0865C70.2487 69.8753 70.3259 69.7374 70.4585 69.5802C70.8039 69.163 71.2099 69.0053 71.7598 69.0495C72.3839 69.0995 73.0157 69.0693 73.6457 69.0565C73.8407 69.053 73.9615 69.1368 74.1077 69.2474C74.5538 69.5866 74.6687 70.0062 74.6593 70.5544Z" fill="#078776"/>
</g>
<defs>
<clipPath id="clip0_1212_108">
<rect width="128" height="97" fill="white"/>
</clipPath>
</defs>
</svg>
